M48
;DRILL file {KiCad 4.0.5} date 05/18/17 11:07:33
;FORMAT={-:-/ absolute / metric / decimal}
FMAT,2
METRIC,TZ
T1C0.600
T2C0.800
T3C1.200
%
G90
G05
M71
T1
X86.36Y-69.85
X86.36Y-71.12
X86.36Y-72.39
T2
X69.93Y-76.2
X74.93Y-76.2
X91.52Y-69.85
X96.52Y-69.85
X96.52Y-81.28
X96.52Y-86.28
T3
X69.85Y-58.42
X69.85Y-61.92
X69.85Y-87.63
X69.85Y-91.13
X80.01Y-50.8
X80.01Y-66.04
X80.01Y-76.2
X80.01Y-91.44
X86.36Y-50.8
X86.36Y-66.04
X86.36Y-76.2
X86.36Y-91.44
X95.25Y-56.19
X95.25Y-59.69
T0
M30
