G04 #@! TF.FileFunction,Legend,Top*
%FSLAX46Y46*%
G04 Gerber Fmt 4.6, Leading zero omitted, Abs format (unit mm)*
G04 Created by KiCad (PCBNEW 4.0.5) date 05/18/17 11:07:14*
%MOMM*%
%LPD*%
G01*
G04 APERTURE LIST*
%ADD10C,0.100000*%
%ADD11C,0.300000*%
%ADD12C,0.120000*%
%ADD13C,0.150000*%
G04 APERTURE END LIST*
D10*
D11*
X100894343Y-59805628D02*
X100894343Y-58662771D01*
X101465771Y-59234200D02*
X100322914Y-59234200D01*
X100894343Y-56805628D02*
X100894343Y-55662771D01*
X64307257Y-87692172D02*
X64307257Y-88835029D01*
X63735829Y-88263600D02*
X64878686Y-88263600D01*
X64307257Y-90692172D02*
X64307257Y-91835029D01*
X64358057Y-58126572D02*
X64358057Y-59269429D01*
X63786629Y-58698000D02*
X64929486Y-58698000D01*
X64358057Y-61126572D02*
X64358057Y-62269429D01*
X89785714Y-52677143D02*
X89928571Y-52748571D01*
X90214286Y-52748571D01*
X90357143Y-52677143D01*
X90428571Y-52534286D01*
X90428571Y-52462857D01*
X90357143Y-52320000D01*
X90214286Y-52248571D01*
X90000000Y-52248571D01*
X89857143Y-52177143D01*
X89785714Y-52034286D01*
X89785714Y-51962857D01*
X89857143Y-51820000D01*
X90000000Y-51748571D01*
X90214286Y-51748571D01*
X90357143Y-51820000D01*
X91071429Y-52748571D02*
X91071429Y-51748571D01*
X91071429Y-51248571D02*
X91000000Y-51320000D01*
X91071429Y-51391429D01*
X91142857Y-51320000D01*
X91071429Y-51248571D01*
X91071429Y-51391429D01*
X92428572Y-51748571D02*
X92428572Y-52962857D01*
X92357143Y-53105714D01*
X92285715Y-53177143D01*
X92142858Y-53248571D01*
X91928572Y-53248571D01*
X91785715Y-53177143D01*
X92428572Y-52677143D02*
X92285715Y-52748571D01*
X92000001Y-52748571D01*
X91857143Y-52677143D01*
X91785715Y-52605714D01*
X91714286Y-52462857D01*
X91714286Y-52034286D01*
X91785715Y-51891429D01*
X91857143Y-51820000D01*
X92000001Y-51748571D01*
X92285715Y-51748571D01*
X92428572Y-51820000D01*
X93142858Y-51748571D02*
X93142858Y-52748571D01*
X93142858Y-51891429D02*
X93214286Y-51820000D01*
X93357144Y-51748571D01*
X93571429Y-51748571D01*
X93714286Y-51820000D01*
X93785715Y-51962857D01*
X93785715Y-52748571D01*
X95142858Y-52748571D02*
X95142858Y-51962857D01*
X95071429Y-51820000D01*
X94928572Y-51748571D01*
X94642858Y-51748571D01*
X94500001Y-51820000D01*
X95142858Y-52677143D02*
X95000001Y-52748571D01*
X94642858Y-52748571D01*
X94500001Y-52677143D01*
X94428572Y-52534286D01*
X94428572Y-52391429D01*
X94500001Y-52248571D01*
X94642858Y-52177143D01*
X95000001Y-52177143D01*
X95142858Y-52105714D01*
X96071430Y-52748571D02*
X95928572Y-52677143D01*
X95857144Y-52534286D01*
X95857144Y-51248571D01*
X98000001Y-52748571D02*
X97857143Y-52677143D01*
X97785715Y-52605714D01*
X97714286Y-52462857D01*
X97714286Y-52034286D01*
X97785715Y-51891429D01*
X97857143Y-51820000D01*
X98000001Y-51748571D01*
X98214286Y-51748571D01*
X98357143Y-51820000D01*
X98428572Y-51891429D01*
X98500001Y-52034286D01*
X98500001Y-52462857D01*
X98428572Y-52605714D01*
X98357143Y-52677143D01*
X98214286Y-52748571D01*
X98000001Y-52748571D01*
X99785715Y-51748571D02*
X99785715Y-52748571D01*
X99142858Y-51748571D02*
X99142858Y-52534286D01*
X99214286Y-52677143D01*
X99357144Y-52748571D01*
X99571429Y-52748571D01*
X99714286Y-52677143D01*
X99785715Y-52605714D01*
X100285715Y-51748571D02*
X100857144Y-51748571D01*
X100500001Y-51248571D02*
X100500001Y-52534286D01*
X100571429Y-52677143D01*
X100714287Y-52748571D01*
X100857144Y-52748571D01*
X65687143Y-64448571D02*
X65687143Y-65948571D01*
X65687143Y-64520000D02*
X65830000Y-64448571D01*
X66115714Y-64448571D01*
X66258571Y-64520000D01*
X66330000Y-64591429D01*
X66401429Y-64734286D01*
X66401429Y-65162857D01*
X66330000Y-65305714D01*
X66258571Y-65377143D01*
X66115714Y-65448571D01*
X65830000Y-65448571D01*
X65687143Y-65377143D01*
X67258572Y-65448571D02*
X67115714Y-65377143D01*
X67044286Y-65305714D01*
X66972857Y-65162857D01*
X66972857Y-64734286D01*
X67044286Y-64591429D01*
X67115714Y-64520000D01*
X67258572Y-64448571D01*
X67472857Y-64448571D01*
X67615714Y-64520000D01*
X67687143Y-64591429D01*
X67758572Y-64734286D01*
X67758572Y-65162857D01*
X67687143Y-65305714D01*
X67615714Y-65377143D01*
X67472857Y-65448571D01*
X67258572Y-65448571D01*
X68258572Y-64448571D02*
X68544286Y-65448571D01*
X68830000Y-64734286D01*
X69115715Y-65448571D01*
X69401429Y-64448571D01*
X70544286Y-65377143D02*
X70401429Y-65448571D01*
X70115715Y-65448571D01*
X69972858Y-65377143D01*
X69901429Y-65234286D01*
X69901429Y-64662857D01*
X69972858Y-64520000D01*
X70115715Y-64448571D01*
X70401429Y-64448571D01*
X70544286Y-64520000D01*
X70615715Y-64662857D01*
X70615715Y-64805714D01*
X69901429Y-64948571D01*
X71258572Y-65448571D02*
X71258572Y-64448571D01*
X71258572Y-64734286D02*
X71330000Y-64591429D01*
X71401429Y-64520000D01*
X71544286Y-64448571D01*
X71687143Y-64448571D01*
X65135714Y-84427143D02*
X65278571Y-84498571D01*
X65564286Y-84498571D01*
X65707143Y-84427143D01*
X65778571Y-84284286D01*
X65778571Y-84212857D01*
X65707143Y-84070000D01*
X65564286Y-83998571D01*
X65350000Y-83998571D01*
X65207143Y-83927143D01*
X65135714Y-83784286D01*
X65135714Y-83712857D01*
X65207143Y-83570000D01*
X65350000Y-83498571D01*
X65564286Y-83498571D01*
X65707143Y-83570000D01*
X66421429Y-84498571D02*
X66421429Y-83498571D01*
X66421429Y-82998571D02*
X66350000Y-83070000D01*
X66421429Y-83141429D01*
X66492857Y-83070000D01*
X66421429Y-82998571D01*
X66421429Y-83141429D01*
X67778572Y-83498571D02*
X67778572Y-84712857D01*
X67707143Y-84855714D01*
X67635715Y-84927143D01*
X67492858Y-84998571D01*
X67278572Y-84998571D01*
X67135715Y-84927143D01*
X67778572Y-84427143D02*
X67635715Y-84498571D01*
X67350001Y-84498571D01*
X67207143Y-84427143D01*
X67135715Y-84355714D01*
X67064286Y-84212857D01*
X67064286Y-83784286D01*
X67135715Y-83641429D01*
X67207143Y-83570000D01*
X67350001Y-83498571D01*
X67635715Y-83498571D01*
X67778572Y-83570000D01*
X68492858Y-83498571D02*
X68492858Y-84498571D01*
X68492858Y-83641429D02*
X68564286Y-83570000D01*
X68707144Y-83498571D01*
X68921429Y-83498571D01*
X69064286Y-83570000D01*
X69135715Y-83712857D01*
X69135715Y-84498571D01*
X70492858Y-84498571D02*
X70492858Y-83712857D01*
X70421429Y-83570000D01*
X70278572Y-83498571D01*
X69992858Y-83498571D01*
X69850001Y-83570000D01*
X70492858Y-84427143D02*
X70350001Y-84498571D01*
X69992858Y-84498571D01*
X69850001Y-84427143D01*
X69778572Y-84284286D01*
X69778572Y-84141429D01*
X69850001Y-83998571D01*
X69992858Y-83927143D01*
X70350001Y-83927143D01*
X70492858Y-83855714D01*
X71421430Y-84498571D02*
X71278572Y-84427143D01*
X71207144Y-84284286D01*
X71207144Y-82998571D01*
X73135715Y-84498571D02*
X73135715Y-83498571D01*
X73135715Y-82998571D02*
X73064286Y-83070000D01*
X73135715Y-83141429D01*
X73207143Y-83070000D01*
X73135715Y-82998571D01*
X73135715Y-83141429D01*
X73850001Y-83498571D02*
X73850001Y-84498571D01*
X73850001Y-83641429D02*
X73921429Y-83570000D01*
X74064287Y-83498571D01*
X74278572Y-83498571D01*
X74421429Y-83570000D01*
X74492858Y-83712857D01*
X74492858Y-84498571D01*
X68100000Y-52743571D02*
X68100000Y-51243571D01*
X68457143Y-51243571D01*
X68671428Y-51315000D01*
X68814286Y-51457857D01*
X68885714Y-51600714D01*
X68957143Y-51886429D01*
X68957143Y-52100714D01*
X68885714Y-52386429D01*
X68814286Y-52529286D01*
X68671428Y-52672143D01*
X68457143Y-52743571D01*
X68100000Y-52743571D01*
X69600000Y-52600714D02*
X69671428Y-52672143D01*
X69600000Y-52743571D01*
X69528571Y-52672143D01*
X69600000Y-52600714D01*
X69600000Y-52743571D01*
X70814286Y-51957857D02*
X70314286Y-51957857D01*
X70314286Y-52743571D02*
X70314286Y-51243571D01*
X71028572Y-51243571D01*
X71600000Y-52600714D02*
X71671428Y-52672143D01*
X71600000Y-52743571D01*
X71528571Y-52672143D01*
X71600000Y-52600714D01*
X71600000Y-52743571D01*
X67278572Y-53936429D02*
X67350001Y-53865000D01*
X67492858Y-53793571D01*
X67850001Y-53793571D01*
X67992858Y-53865000D01*
X68064287Y-53936429D01*
X68135715Y-54079286D01*
X68135715Y-54222143D01*
X68064287Y-54436429D01*
X67207144Y-55293571D01*
X68135715Y-55293571D01*
X69064286Y-53793571D02*
X69207143Y-53793571D01*
X69350000Y-53865000D01*
X69421429Y-53936429D01*
X69492858Y-54079286D01*
X69564286Y-54365000D01*
X69564286Y-54722143D01*
X69492858Y-55007857D01*
X69421429Y-55150714D01*
X69350000Y-55222143D01*
X69207143Y-55293571D01*
X69064286Y-55293571D01*
X68921429Y-55222143D01*
X68850000Y-55150714D01*
X68778572Y-55007857D01*
X68707143Y-54722143D01*
X68707143Y-54365000D01*
X68778572Y-54079286D01*
X68850000Y-53936429D01*
X68921429Y-53865000D01*
X69064286Y-53793571D01*
X70992857Y-55293571D02*
X70135714Y-55293571D01*
X70564286Y-55293571D02*
X70564286Y-53793571D01*
X70421429Y-54007857D01*
X70278571Y-54150714D01*
X70135714Y-54222143D01*
X71492857Y-53793571D02*
X72492857Y-53793571D01*
X71850000Y-55293571D01*
D12*
X67946593Y-77183445D02*
G75*
G03X76914161Y-77180000I4483407J983445D01*
G01*
X67946593Y-75216555D02*
G75*
G02X76914161Y-75220000I4483407J-983445D01*
G01*
X67946593Y-75216555D02*
G75*
G03X67945839Y-77180000I4483407J-983445D01*
G01*
X77130000Y-76200000D02*
X75930000Y-76200000D01*
X76530000Y-76850000D02*
X76530000Y-75550000D01*
X97503445Y-88263407D02*
G75*
G03X97500000Y-79295839I-983445J4483407D01*
G01*
X95536555Y-88263407D02*
G75*
G02X95540000Y-79295839I983445J4483407D01*
G01*
X95536555Y-88263407D02*
G75*
G03X97500000Y-88264161I983445J4483407D01*
G01*
X96520000Y-79080000D02*
X96520000Y-80280000D01*
X97170000Y-79680000D02*
X95870000Y-79680000D01*
X89536593Y-70833445D02*
G75*
G03X98504161Y-70830000I4483407J983445D01*
G01*
X89536593Y-68866555D02*
G75*
G02X98504161Y-68870000I4483407J-983445D01*
G01*
X89536593Y-68866555D02*
G75*
G03X89535839Y-70830000I4483407J-983445D01*
G01*
X98720000Y-69850000D02*
X97520000Y-69850000D01*
X98120000Y-70500000D02*
X98120000Y-69200000D01*
D13*
X65750000Y-89380000D02*
X65350000Y-89380000D01*
X66850000Y-85880000D02*
X66850000Y-92880000D01*
X65750000Y-85880000D02*
X65750000Y-92880000D01*
X72950000Y-85880000D02*
X65350000Y-85880000D01*
X65350000Y-92880000D02*
X72950000Y-92880000D01*
X72950000Y-92880000D02*
X72950000Y-85880000D01*
X99350000Y-57940000D02*
X99750000Y-57940000D01*
X98250000Y-61440000D02*
X98250000Y-54440000D01*
X99350000Y-61440000D02*
X99350000Y-54440000D01*
X92150000Y-61440000D02*
X99750000Y-61440000D01*
X99750000Y-54440000D02*
X92150000Y-54440000D01*
X92150000Y-54440000D02*
X92150000Y-61440000D01*
X65750000Y-60170000D02*
X65350000Y-60170000D01*
X66850000Y-56670000D02*
X66850000Y-63670000D01*
X65750000Y-56670000D02*
X65750000Y-63670000D01*
X72950000Y-56670000D02*
X65350000Y-56670000D01*
X65350000Y-63670000D02*
X72950000Y-63670000D01*
X72950000Y-63670000D02*
X72950000Y-56670000D01*
D12*
X84510000Y-69320000D02*
X84510000Y-72920000D01*
X84521522Y-69281522D02*
G75*
G02X88960000Y-71120000I1838478J-1838478D01*
G01*
X84521522Y-72958478D02*
G75*
G03X88960000Y-71120000I1838478J1838478D01*
G01*
X81870000Y-53410000D02*
X78150000Y-53410000D01*
X78150000Y-53410000D02*
X78150000Y-63430000D01*
X78150000Y-63430000D02*
X81870000Y-63430000D01*
X81870000Y-63430000D02*
X81870000Y-53410000D01*
X80010000Y-52180000D02*
X80010000Y-53410000D01*
X80010000Y-64660000D02*
X80010000Y-63430000D01*
X81870000Y-78810000D02*
X78150000Y-78810000D01*
X78150000Y-78810000D02*
X78150000Y-88830000D01*
X78150000Y-88830000D02*
X81870000Y-88830000D01*
X81870000Y-88830000D02*
X81870000Y-78810000D01*
X80010000Y-77580000D02*
X80010000Y-78810000D01*
X80010000Y-90060000D02*
X80010000Y-88830000D01*
X88220000Y-53410000D02*
X84500000Y-53410000D01*
X84500000Y-53410000D02*
X84500000Y-63430000D01*
X84500000Y-63430000D02*
X88220000Y-63430000D01*
X88220000Y-63430000D02*
X88220000Y-53410000D01*
X86360000Y-52180000D02*
X86360000Y-53410000D01*
X86360000Y-64660000D02*
X86360000Y-63430000D01*
X88220000Y-78810000D02*
X84500000Y-78810000D01*
X84500000Y-78810000D02*
X84500000Y-88830000D01*
X84500000Y-88830000D02*
X88220000Y-88830000D01*
X88220000Y-88830000D02*
X88220000Y-78810000D01*
X86360000Y-77580000D02*
X86360000Y-78810000D01*
X86360000Y-90060000D02*
X86360000Y-88830000D01*
D13*
X72263334Y-82117143D02*
X72215715Y-82164762D01*
X72072858Y-82212381D01*
X71977620Y-82212381D01*
X71834762Y-82164762D01*
X71739524Y-82069524D01*
X71691905Y-81974286D01*
X71644286Y-81783810D01*
X71644286Y-81640952D01*
X71691905Y-81450476D01*
X71739524Y-81355238D01*
X71834762Y-81260000D01*
X71977620Y-81212381D01*
X72072858Y-81212381D01*
X72215715Y-81260000D01*
X72263334Y-81307619D01*
X73215715Y-82212381D02*
X72644286Y-82212381D01*
X72930000Y-82212381D02*
X72930000Y-81212381D01*
X72834762Y-81355238D01*
X72739524Y-81450476D01*
X72644286Y-81498095D01*
X102437143Y-83946666D02*
X102484762Y-83994285D01*
X102532381Y-84137142D01*
X102532381Y-84232380D01*
X102484762Y-84375238D01*
X102389524Y-84470476D01*
X102294286Y-84518095D01*
X102103810Y-84565714D01*
X101960952Y-84565714D01*
X101770476Y-84518095D01*
X101675238Y-84470476D01*
X101580000Y-84375238D01*
X101532381Y-84232380D01*
X101532381Y-84137142D01*
X101580000Y-83994285D01*
X101627619Y-83946666D01*
X101627619Y-83565714D02*
X101580000Y-83518095D01*
X101532381Y-83422857D01*
X101532381Y-83184761D01*
X101580000Y-83089523D01*
X101627619Y-83041904D01*
X101722857Y-82994285D01*
X101818095Y-82994285D01*
X101960952Y-83041904D01*
X102532381Y-83613333D01*
X102532381Y-82994285D01*
X93853334Y-75767143D02*
X93805715Y-75814762D01*
X93662858Y-75862381D01*
X93567620Y-75862381D01*
X93424762Y-75814762D01*
X93329524Y-75719524D01*
X93281905Y-75624286D01*
X93234286Y-75433810D01*
X93234286Y-75290952D01*
X93281905Y-75100476D01*
X93329524Y-75005238D01*
X93424762Y-74910000D01*
X93567620Y-74862381D01*
X93662858Y-74862381D01*
X93805715Y-74910000D01*
X93853334Y-74957619D01*
X94186667Y-74862381D02*
X94805715Y-74862381D01*
X94472381Y-75243333D01*
X94615239Y-75243333D01*
X94710477Y-75290952D01*
X94758096Y-75338571D01*
X94805715Y-75433810D01*
X94805715Y-75671905D01*
X94758096Y-75767143D01*
X94710477Y-75814762D01*
X94615239Y-75862381D01*
X94329524Y-75862381D01*
X94234286Y-75814762D01*
X94186667Y-75767143D01*
X74602381Y-90118095D02*
X73602381Y-90118095D01*
X73602381Y-89737142D01*
X73650000Y-89641904D01*
X73697619Y-89594285D01*
X73792857Y-89546666D01*
X73935714Y-89546666D01*
X74030952Y-89594285D01*
X74078571Y-89641904D01*
X74126190Y-89737142D01*
X74126190Y-90118095D01*
X74602381Y-88594285D02*
X74602381Y-89165714D01*
X74602381Y-88880000D02*
X73602381Y-88880000D01*
X73745238Y-88975238D01*
X73840476Y-89070476D01*
X73888095Y-89165714D01*
X91402381Y-58678095D02*
X90402381Y-58678095D01*
X90402381Y-58297142D01*
X90450000Y-58201904D01*
X90497619Y-58154285D01*
X90592857Y-58106666D01*
X90735714Y-58106666D01*
X90830952Y-58154285D01*
X90878571Y-58201904D01*
X90926190Y-58297142D01*
X90926190Y-58678095D01*
X90497619Y-57725714D02*
X90450000Y-57678095D01*
X90402381Y-57582857D01*
X90402381Y-57344761D01*
X90450000Y-57249523D01*
X90497619Y-57201904D01*
X90592857Y-57154285D01*
X90688095Y-57154285D01*
X90830952Y-57201904D01*
X91402381Y-57773333D01*
X91402381Y-57154285D01*
X74602381Y-60908095D02*
X73602381Y-60908095D01*
X73602381Y-60527142D01*
X73650000Y-60431904D01*
X73697619Y-60384285D01*
X73792857Y-60336666D01*
X73935714Y-60336666D01*
X74030952Y-60384285D01*
X74078571Y-60431904D01*
X74126190Y-60527142D01*
X74126190Y-60908095D01*
X73602381Y-60003333D02*
X73602381Y-59384285D01*
X73983333Y-59717619D01*
X73983333Y-59574761D01*
X74030952Y-59479523D01*
X74078571Y-59431904D01*
X74173810Y-59384285D01*
X74411905Y-59384285D01*
X74507143Y-59431904D01*
X74554762Y-59479523D01*
X74602381Y-59574761D01*
X74602381Y-59860476D01*
X74554762Y-59955714D01*
X74507143Y-60003333D01*
X90467619Y-71215238D02*
X90420000Y-71310476D01*
X90324762Y-71405714D01*
X90181905Y-71548571D01*
X90134286Y-71643810D01*
X90134286Y-71739048D01*
X90372381Y-71691429D02*
X90324762Y-71786667D01*
X90229524Y-71881905D01*
X90039048Y-71929524D01*
X89705714Y-71929524D01*
X89515238Y-71881905D01*
X89420000Y-71786667D01*
X89372381Y-71691429D01*
X89372381Y-71500952D01*
X89420000Y-71405714D01*
X89515238Y-71310476D01*
X89705714Y-71262857D01*
X90039048Y-71262857D01*
X90229524Y-71310476D01*
X90324762Y-71405714D01*
X90372381Y-71500952D01*
X90372381Y-71691429D01*
X90372381Y-70310476D02*
X90372381Y-70881905D01*
X90372381Y-70596191D02*
X89372381Y-70596191D01*
X89515238Y-70691429D01*
X89610476Y-70786667D01*
X89658095Y-70881905D01*
X83322381Y-58586666D02*
X82846190Y-58920000D01*
X83322381Y-59158095D02*
X82322381Y-59158095D01*
X82322381Y-58777142D01*
X82370000Y-58681904D01*
X82417619Y-58634285D01*
X82512857Y-58586666D01*
X82655714Y-58586666D01*
X82750952Y-58634285D01*
X82798571Y-58681904D01*
X82846190Y-58777142D01*
X82846190Y-59158095D01*
X83322381Y-57634285D02*
X83322381Y-58205714D01*
X83322381Y-57920000D02*
X82322381Y-57920000D01*
X82465238Y-58015238D01*
X82560476Y-58110476D01*
X82608095Y-58205714D01*
X83322381Y-83986666D02*
X82846190Y-84320000D01*
X83322381Y-84558095D02*
X82322381Y-84558095D01*
X82322381Y-84177142D01*
X82370000Y-84081904D01*
X82417619Y-84034285D01*
X82512857Y-83986666D01*
X82655714Y-83986666D01*
X82750952Y-84034285D01*
X82798571Y-84081904D01*
X82846190Y-84177142D01*
X82846190Y-84558095D01*
X82417619Y-83605714D02*
X82370000Y-83558095D01*
X82322381Y-83462857D01*
X82322381Y-83224761D01*
X82370000Y-83129523D01*
X82417619Y-83081904D01*
X82512857Y-83034285D01*
X82608095Y-83034285D01*
X82750952Y-83081904D01*
X83322381Y-83653333D01*
X83322381Y-83034285D01*
X89672381Y-58586666D02*
X89196190Y-58920000D01*
X89672381Y-59158095D02*
X88672381Y-59158095D01*
X88672381Y-58777142D01*
X88720000Y-58681904D01*
X88767619Y-58634285D01*
X88862857Y-58586666D01*
X89005714Y-58586666D01*
X89100952Y-58634285D01*
X89148571Y-58681904D01*
X89196190Y-58777142D01*
X89196190Y-59158095D01*
X88672381Y-58253333D02*
X88672381Y-57634285D01*
X89053333Y-57967619D01*
X89053333Y-57824761D01*
X89100952Y-57729523D01*
X89148571Y-57681904D01*
X89243810Y-57634285D01*
X89481905Y-57634285D01*
X89577143Y-57681904D01*
X89624762Y-57729523D01*
X89672381Y-57824761D01*
X89672381Y-58110476D01*
X89624762Y-58205714D01*
X89577143Y-58253333D01*
X89672381Y-83986666D02*
X89196190Y-84320000D01*
X89672381Y-84558095D02*
X88672381Y-84558095D01*
X88672381Y-84177142D01*
X88720000Y-84081904D01*
X88767619Y-84034285D01*
X88862857Y-83986666D01*
X89005714Y-83986666D01*
X89100952Y-84034285D01*
X89148571Y-84081904D01*
X89196190Y-84177142D01*
X89196190Y-84558095D01*
X89005714Y-83129523D02*
X89672381Y-83129523D01*
X88624762Y-83367619D02*
X89339048Y-83605714D01*
X89339048Y-82986666D01*
M02*
