<?xml version="1.0" standalone="no"?>
 <!DOCTYPE svg PUBLIC "-//W3C//DTD SVG 1.1//EN" 
 "http://www.w3.org/Graphics/SVG/1.1/DTD/svg11.dtd"> 
<svg xmlns="http://www.w3.org/2000/svg" version="1.1" 
    width="29.7002cm" height="21.0007cm" viewBox="0 0 116930 82680 ">
<title>SVG Picture created as Single_transistor_AMP-F.SilkS.svg date 2017/05/25 09:08:59 </title>
  <desc>Picture generated by PCBNEW </desc>
<g style="fill:#000000; fill-opacity:1;stroke:#000000; stroke-opacity:1;
stroke-linecap:round; stroke-linejoin:round; "
 transform="translate(0 0) scale(1 1)">
</g>
<g style="fill:#000000; fill-opacity:0.0; 
stroke:#000000; stroke-width:-0.000393701; stroke-opacity:1; 
stroke-linecap:round; stroke-linejoin:round;">
</g>
<g style="fill:#000000; fill-opacity:0.0; 
stroke:#000000; stroke-width:39.3701; stroke-opacity:1; 
stroke-linecap:round; stroke-linejoin:round;">
</g>
<g style="fill:#000000; fill-opacity:0.0; 
stroke:#000000; stroke-width:59.0551; stroke-opacity:1; 
stroke-linecap:round; stroke-linejoin:round;">
<rect x="69685.9" y="65357.2" width="42519.7" height="12598.4" rx="0" />
</g>
<g style="fill:#000000; fill-opacity:0.0; 
stroke:#000000; stroke-width:39.3701; stroke-opacity:1; 
stroke-linecap:round; stroke-linejoin:round;">
</g>
<g style="fill:#000000; fill-opacity:0.0; 
stroke:#000000; stroke-width:59.0551; stroke-opacity:1; 
stroke-linecap:round; stroke-linejoin:round;">
<rect x="3937.01" y="3937.01" width="109056" height="74806" rx="0" />
</g>
<g style="fill:#000000; fill-opacity:0.0; 
stroke:#000000; stroke-width:39.3701; stroke-opacity:1; 
stroke-linecap:round; stroke-linejoin:round;">
</g>
<g style="fill:#000000; fill-opacity:0.0; 
stroke:#000000; stroke-width:59.0551; stroke-opacity:1; 
stroke-linecap:round; stroke-linejoin:round;">
<rect x="4724.41" y="4724.41" width="107481" height="73231.2" rx="0" />
</g>
<g style="fill:#000000; fill-opacity:0.0; 
stroke:#000000; stroke-width:39.3701; stroke-opacity:1; 
stroke-linecap:round; stroke-linejoin:round;">
</g>
<g style="fill:#000000; fill-opacity:0.0; 
stroke:#000000; stroke-width:59.0551; stroke-opacity:1; 
stroke-linecap:round; stroke-linejoin:round;">
<path d="M23622 4724
L23622 3937
" />
</g>
<g style="fill:#000000; fill-opacity:0.0; 
stroke:#000000; stroke-width:39.3701; stroke-opacity:1; 
stroke-linecap:round; stroke-linejoin:round;">
</g>
<g style="fill:#000000; fill-opacity:0.0; 
stroke:#000000; stroke-width:59.0551; stroke-opacity:1; 
stroke-linecap:round; stroke-linejoin:round;">
<path d="M43307 4724
L43307 3937
" />
</g>
<g style="fill:#000000; fill-opacity:0.0; 
stroke:#000000; stroke-width:39.3701; stroke-opacity:1; 
stroke-linecap:round; stroke-linejoin:round;">
</g>
<g style="fill:#000000; fill-opacity:0.0; 
stroke:#000000; stroke-width:59.0551; stroke-opacity:1; 
stroke-linecap:round; stroke-linejoin:round;">
<path d="M62992 4724
L62992 3937
" />
</g>
<g style="fill:#000000; fill-opacity:0.0; 
stroke:#000000; stroke-width:39.3701; stroke-opacity:1; 
stroke-linecap:round; stroke-linejoin:round;">
</g>
<g style="fill:#000000; fill-opacity:0.0; 
stroke:#000000; stroke-width:59.0551; stroke-opacity:1; 
stroke-linecap:round; stroke-linejoin:round;">
<path d="M82677 4724
L82677 3937
" />
</g>
<g style="fill:#000000; fill-opacity:0.0; 
stroke:#000000; stroke-width:39.3701; stroke-opacity:1; 
stroke-linecap:round; stroke-linejoin:round;">
</g>
<g style="fill:#000000; fill-opacity:0.0; 
stroke:#000000; stroke-width:59.0551; stroke-opacity:1; 
stroke-linecap:round; stroke-linejoin:round;">
<path d="M102362 4724
L102362 3937
" />
</g>
<g style="fill:#000000; fill-opacity:0.0; 
stroke:#000000; stroke-width:39.3701; stroke-opacity:1; 
stroke-linecap:round; stroke-linejoin:round;">
</g>
<g style="fill:#000000; fill-opacity:0.0; 
stroke:#000000; stroke-width:59.0551; stroke-opacity:1; 
stroke-linecap:round; stroke-linejoin:round;">
<path d="M14169 4562
L13877 4562
" />
<path d="M14023 4562
L14023 4050
L13974 4123
L13925 4172
L13877 4196
" />
</g>
<g style="fill:#000000; fill-opacity:0.0; 
stroke:#000000; stroke-width:39.3701; stroke-opacity:1; 
stroke-linecap:round; stroke-linejoin:round;">
</g>
<g style="fill:#000000; fill-opacity:0.0; 
stroke:#000000; stroke-width:59.0551; stroke-opacity:1; 
stroke-linecap:round; stroke-linejoin:round;">
<path d="M33562 4099
L33586 4074
L33635 4050
L33757 4050
L33805 4074
L33830 4099
L33854 4147
L33854 4196
L33830 4269
L33537 4562
L33854 4562
" />
</g>
<g style="fill:#000000; fill-opacity:0.0; 
stroke:#000000; stroke-width:39.3701; stroke-opacity:1; 
stroke-linecap:round; stroke-linejoin:round;">
</g>
<g style="fill:#000000; fill-opacity:0.0; 
stroke:#000000; stroke-width:59.0551; stroke-opacity:1; 
stroke-linecap:round; stroke-linejoin:round;">
<path d="M53222 4050
L53539 4050
L53368 4245
L53442 4245
L53490 4269
L53515 4294
L53539 4342
L53539 4464
L53515 4513
L53490 4537
L53442 4562
L53295 4562
L53247 4537
L53222 4513
" />
</g>
<g style="fill:#000000; fill-opacity:0.0; 
stroke:#000000; stroke-width:39.3701; stroke-opacity:1; 
stroke-linecap:round; stroke-linejoin:round;">
</g>
<g style="fill:#000000; fill-opacity:0.0; 
stroke:#000000; stroke-width:59.0551; stroke-opacity:1; 
stroke-linecap:round; stroke-linejoin:round;">
<path d="M73175 4221
L73175 4562
" />
<path d="M73053 4026
L72932 4391
L73248 4391
" />
</g>
<g style="fill:#000000; fill-opacity:0.0; 
stroke:#000000; stroke-width:39.3701; stroke-opacity:1; 
stroke-linecap:round; stroke-linejoin:round;">
</g>
<g style="fill:#000000; fill-opacity:0.0; 
stroke:#000000; stroke-width:59.0551; stroke-opacity:1; 
stroke-linecap:round; stroke-linejoin:round;">
<path d="M92885 4050
L92641 4050
L92617 4294
L92641 4269
L92690 4245
L92812 4245
L92860 4269
L92885 4294
L92909 4342
L92909 4464
L92885 4513
L92860 4537
L92812 4562
L92690 4562
L92641 4537
L92617 4513
" />
</g>
<g style="fill:#000000; fill-opacity:0.0; 
stroke:#000000; stroke-width:39.3701; stroke-opacity:1; 
stroke-linecap:round; stroke-linejoin:round;">
</g>
<g style="fill:#000000; fill-opacity:0.0; 
stroke:#000000; stroke-width:59.0551; stroke-opacity:1; 
stroke-linecap:round; stroke-linejoin:round;">
<path d="M112545 4050
L112448 4050
L112399 4074
L112375 4099
L112326 4172
L112302 4269
L112302 4464
L112326 4513
L112350 4537
L112399 4562
L112497 4562
L112545 4537
L112570 4513
L112594 4464
L112594 4342
L112570 4294
L112545 4269
L112497 4245
L112399 4245
L112350 4269
L112326 4294
L112302 4342
" />
</g>
<g style="fill:#000000; fill-opacity:0.0; 
stroke:#000000; stroke-width:39.3701; stroke-opacity:1; 
stroke-linecap:round; stroke-linejoin:round;">
</g>
<g style="fill:#000000; fill-opacity:0.0; 
stroke:#000000; stroke-width:59.0551; stroke-opacity:1; 
stroke-linecap:round; stroke-linejoin:round;">
<path d="M23622 77955
L23622 78742
" />
</g>
<g style="fill:#000000; fill-opacity:0.0; 
stroke:#000000; stroke-width:39.3701; stroke-opacity:1; 
stroke-linecap:round; stroke-linejoin:round;">
</g>
<g style="fill:#000000; fill-opacity:0.0; 
stroke:#000000; stroke-width:59.0551; stroke-opacity:1; 
stroke-linecap:round; stroke-linejoin:round;">
<path d="M43307 77955
L43307 78742
" />
</g>
<g style="fill:#000000; fill-opacity:0.0; 
stroke:#000000; stroke-width:39.3701; stroke-opacity:1; 
stroke-linecap:round; stroke-linejoin:round;">
</g>
<g style="fill:#000000; fill-opacity:0.0; 
stroke:#000000; stroke-width:59.0551; stroke-opacity:1; 
stroke-linecap:round; stroke-linejoin:round;">
<path d="M62992 77955
L62992 78742
" />
</g>
<g style="fill:#000000; fill-opacity:0.0; 
stroke:#000000; stroke-width:39.3701; stroke-opacity:1; 
stroke-linecap:round; stroke-linejoin:round;">
</g>
<g style="fill:#000000; fill-opacity:0.0; 
stroke:#000000; stroke-width:59.0551; stroke-opacity:1; 
stroke-linecap:round; stroke-linejoin:round;">
<path d="M82677 77955
L82677 78742
" />
</g>
<g style="fill:#000000; fill-opacity:0.0; 
stroke:#000000; stroke-width:39.3701; stroke-opacity:1; 
stroke-linecap:round; stroke-linejoin:round;">
</g>
<g style="fill:#000000; fill-opacity:0.0; 
stroke:#000000; stroke-width:59.0551; stroke-opacity:1; 
stroke-linecap:round; stroke-linejoin:round;">
<path d="M102362 77955
L102362 78742
" />
</g>
<g style="fill:#000000; fill-opacity:0.0; 
stroke:#000000; stroke-width:39.3701; stroke-opacity:1; 
stroke-linecap:round; stroke-linejoin:round;">
</g>
<g style="fill:#000000; fill-opacity:0.0; 
stroke:#000000; stroke-width:59.0551; stroke-opacity:1; 
stroke-linecap:round; stroke-linejoin:round;">
<path d="M14169 78580
L13877 78580
" />
<path d="M14023 78580
L14023 78069
L13974 78142
L13925 78190
L13877 78215
" />
</g>
<g style="fill:#000000; fill-opacity:0.0; 
stroke:#000000; stroke-width:39.3701; stroke-opacity:1; 
stroke-linecap:round; stroke-linejoin:round;">
</g>
<g style="fill:#000000; fill-opacity:0.0; 
stroke:#000000; stroke-width:59.0551; stroke-opacity:1; 
stroke-linecap:round; stroke-linejoin:round;">
<path d="M33562 78117
L33586 78093
L33635 78069
L33757 78069
L33805 78093
L33830 78117
L33854 78166
L33854 78215
L33830 78288
L33537 78580
L33854 78580
" />
</g>
<g style="fill:#000000; fill-opacity:0.0; 
stroke:#000000; stroke-width:39.3701; stroke-opacity:1; 
stroke-linecap:round; stroke-linejoin:round;">
</g>
<g style="fill:#000000; fill-opacity:0.0; 
stroke:#000000; stroke-width:59.0551; stroke-opacity:1; 
stroke-linecap:round; stroke-linejoin:round;">
<path d="M53222 78069
L53539 78069
L53368 78263
L53442 78263
L53490 78288
L53515 78312
L53539 78361
L53539 78483
L53515 78532
L53490 78556
L53442 78580
L53295 78580
L53247 78556
L53222 78532
" />
</g>
<g style="fill:#000000; fill-opacity:0.0; 
stroke:#000000; stroke-width:39.3701; stroke-opacity:1; 
stroke-linecap:round; stroke-linejoin:round;">
</g>
<g style="fill:#000000; fill-opacity:0.0; 
stroke:#000000; stroke-width:59.0551; stroke-opacity:1; 
stroke-linecap:round; stroke-linejoin:round;">
<path d="M73175 78239
L73175 78580
" />
<path d="M73053 78044
L72932 78410
L73248 78410
" />
</g>
<g style="fill:#000000; fill-opacity:0.0; 
stroke:#000000; stroke-width:39.3701; stroke-opacity:1; 
stroke-linecap:round; stroke-linejoin:round;">
</g>
<g style="fill:#000000; fill-opacity:0.0; 
stroke:#000000; stroke-width:59.0551; stroke-opacity:1; 
stroke-linecap:round; stroke-linejoin:round;">
<path d="M92885 78069
L92641 78069
L92617 78312
L92641 78288
L92690 78263
L92812 78263
L92860 78288
L92885 78312
L92909 78361
L92909 78483
L92885 78532
L92860 78556
L92812 78580
L92690 78580
L92641 78556
L92617 78532
" />
</g>
<g style="fill:#000000; fill-opacity:0.0; 
stroke:#000000; stroke-width:39.3701; stroke-opacity:1; 
stroke-linecap:round; stroke-linejoin:round;">
</g>
<g style="fill:#000000; fill-opacity:0.0; 
stroke:#000000; stroke-width:59.0551; stroke-opacity:1; 
stroke-linecap:round; stroke-linejoin:round;">
<path d="M112545 78069
L112448 78069
L112399 78093
L112375 78117
L112326 78190
L112302 78288
L112302 78483
L112326 78532
L112350 78556
L112399 78580
L112497 78580
L112545 78556
L112570 78532
L112594 78483
L112594 78361
L112570 78312
L112545 78288
L112497 78263
L112399 78263
L112350 78288
L112326 78312
L112302 78361
" />
</g>
<g style="fill:#000000; fill-opacity:0.0; 
stroke:#000000; stroke-width:39.3701; stroke-opacity:1; 
stroke-linecap:round; stroke-linejoin:round;">
</g>
<g style="fill:#000000; fill-opacity:0.0; 
stroke:#000000; stroke-width:59.0551; stroke-opacity:1; 
stroke-linecap:round; stroke-linejoin:round;">
<path d="M3937 23622
L4724 23622
" />
</g>
<g style="fill:#000000; fill-opacity:0.0; 
stroke:#000000; stroke-width:39.3701; stroke-opacity:1; 
stroke-linecap:round; stroke-linejoin:round;">
</g>
<g style="fill:#000000; fill-opacity:0.0; 
stroke:#000000; stroke-width:59.0551; stroke-opacity:1; 
stroke-linecap:round; stroke-linejoin:round;">
<path d="M3937 43307
L4724 43307
" />
</g>
<g style="fill:#000000; fill-opacity:0.0; 
stroke:#000000; stroke-width:39.3701; stroke-opacity:1; 
stroke-linecap:round; stroke-linejoin:round;">
</g>
<g style="fill:#000000; fill-opacity:0.0; 
stroke:#000000; stroke-width:59.0551; stroke-opacity:1; 
stroke-linecap:round; stroke-linejoin:round;">
<path d="M3937 62992
L4724 62992
" />
</g>
<g style="fill:#000000; fill-opacity:0.0; 
stroke:#000000; stroke-width:39.3701; stroke-opacity:1; 
stroke-linecap:round; stroke-linejoin:round;">
</g>
<g style="fill:#000000; fill-opacity:0.0; 
stroke:#000000; stroke-width:59.0551; stroke-opacity:1; 
stroke-linecap:round; stroke-linejoin:round;">
<path d="M4208 13864
L4452 13864
" />
<path d="M4160 14011
L4330 13499
L4501 14011
" />
</g>
<g style="fill:#000000; fill-opacity:0.0; 
stroke:#000000; stroke-width:39.3701; stroke-opacity:1; 
stroke-linecap:round; stroke-linejoin:round;">
</g>
<g style="fill:#000000; fill-opacity:0.0; 
stroke:#000000; stroke-width:59.0551; stroke-opacity:1; 
stroke-linecap:round; stroke-linejoin:round;">
<path d="M4367 33428
L4440 33452
L4464 33476
L4489 33525
L4489 33598
L4464 33647
L4440 33671
L4391 33696
L4196 33696
L4196 33184
L4367 33184
L4416 33208
L4440 33233
L4464 33281
L4464 33330
L4440 33379
L4416 33403
L4367 33428
L4196 33428
" />
</g>
<g style="fill:#000000; fill-opacity:0.0; 
stroke:#000000; stroke-width:39.3701; stroke-opacity:1; 
stroke-linecap:round; stroke-linejoin:round;">
</g>
<g style="fill:#000000; fill-opacity:0.0; 
stroke:#000000; stroke-width:59.0551; stroke-opacity:1; 
stroke-linecap:round; stroke-linejoin:round;">
<path d="M4489 53332
L4464 53356
L4391 53381
L4342 53381
L4269 53356
L4221 53308
L4196 53259
L4172 53161
L4172 53088
L4196 52991
L4221 52942
L4269 52893
L4342 52869
L4391 52869
L4464 52893
L4489 52918
" />
</g>
<g style="fill:#000000; fill-opacity:0.0; 
stroke:#000000; stroke-width:39.3701; stroke-opacity:1; 
stroke-linecap:round; stroke-linejoin:round;">
</g>
<g style="fill:#000000; fill-opacity:0.0; 
stroke:#000000; stroke-width:59.0551; stroke-opacity:1; 
stroke-linecap:round; stroke-linejoin:round;">
<path d="M4196 73066
L4196 72554
L4318 72554
L4391 72578
L4440 72627
L4464 72676
L4489 72773
L4489 72846
L4464 72944
L4440 72993
L4391 73041
L4318 73066
L4196 73066
" />
</g>
<g style="fill:#000000; fill-opacity:0.0; 
stroke:#000000; stroke-width:39.3701; stroke-opacity:1; 
stroke-linecap:round; stroke-linejoin:round;">
</g>
<g style="fill:#000000; fill-opacity:0.0; 
stroke:#000000; stroke-width:59.0551; stroke-opacity:1; 
stroke-linecap:round; stroke-linejoin:round;">
<path d="M112992 23622
L112205 23622
" />
</g>
<g style="fill:#000000; fill-opacity:0.0; 
stroke:#000000; stroke-width:39.3701; stroke-opacity:1; 
stroke-linecap:round; stroke-linejoin:round;">
</g>
<g style="fill:#000000; fill-opacity:0.0; 
stroke:#000000; stroke-width:59.0551; stroke-opacity:1; 
stroke-linecap:round; stroke-linejoin:round;">
<path d="M112992 43307
L112205 43307
" />
</g>
<g style="fill:#000000; fill-opacity:0.0; 
stroke:#000000; stroke-width:39.3701; stroke-opacity:1; 
stroke-linecap:round; stroke-linejoin:round;">
</g>
<g style="fill:#000000; fill-opacity:0.0; 
stroke:#000000; stroke-width:59.0551; stroke-opacity:1; 
stroke-linecap:round; stroke-linejoin:round;">
<path d="M112992 62992
L112205 62992
" />
</g>
<g style="fill:#000000; fill-opacity:0.0; 
stroke:#000000; stroke-width:39.3701; stroke-opacity:1; 
stroke-linecap:round; stroke-linejoin:round;">
</g>
<g style="fill:#000000; fill-opacity:0.0; 
stroke:#000000; stroke-width:59.0551; stroke-opacity:1; 
stroke-linecap:round; stroke-linejoin:round;">
<path d="M112477 13864
L112721 13864
" />
<path d="M112428 14011
L112599 13499
L112769 14011
" />
</g>
<g style="fill:#000000; fill-opacity:0.0; 
stroke:#000000; stroke-width:39.3701; stroke-opacity:1; 
stroke-linecap:round; stroke-linejoin:round;">
</g>
<g style="fill:#000000; fill-opacity:0.0; 
stroke:#000000; stroke-width:59.0551; stroke-opacity:1; 
stroke-linecap:round; stroke-linejoin:round;">
<path d="M112635 33428
L112708 33452
L112733 33476
L112757 33525
L112757 33598
L112733 33647
L112708 33671
L112660 33696
L112465 33696
L112465 33184
L112635 33184
L112684 33208
L112708 33233
L112733 33281
L112733 33330
L112708 33379
L112684 33403
L112635 33428
L112465 33428
" />
</g>
<g style="fill:#000000; fill-opacity:0.0; 
stroke:#000000; stroke-width:39.3701; stroke-opacity:1; 
stroke-linecap:round; stroke-linejoin:round;">
</g>
<g style="fill:#000000; fill-opacity:0.0; 
stroke:#000000; stroke-width:59.0551; stroke-opacity:1; 
stroke-linecap:round; stroke-linejoin:round;">
<path d="M112757 53332
L112733 53356
L112660 53381
L112611 53381
L112538 53356
L112489 53308
L112465 53259
L112440 53161
L112440 53088
L112465 52991
L112489 52942
L112538 52893
L112611 52869
L112660 52869
L112733 52893
L112757 52918
" />
</g>
<g style="fill:#000000; fill-opacity:0.0; 
stroke:#000000; stroke-width:39.3701; stroke-opacity:1; 
stroke-linecap:round; stroke-linejoin:round;">
</g>
<g style="fill:#000000; fill-opacity:0.0; 
stroke:#000000; stroke-width:59.0551; stroke-opacity:1; 
stroke-linecap:round; stroke-linejoin:round;">
<path d="M112465 73066
L112465 72554
L112587 72554
L112660 72578
L112708 72627
L112733 72676
L112757 72773
L112757 72846
L112733 72944
L112708 72993
L112660 73041
L112587 73066
L112465 73066
" />
</g>
<g style="fill:#000000; fill-opacity:0.0; 
stroke:#000000; stroke-width:39.3701; stroke-opacity:1; 
stroke-linecap:round; stroke-linejoin:round;">
</g>
<g style="fill:#000000; fill-opacity:0.0; 
stroke:#000000; stroke-width:59.0551; stroke-opacity:1; 
stroke-linecap:round; stroke-linejoin:round;">
<path d="M78881 76293
L78881 75703
L79022 75703
L79106 75731
L79162 75787
L79190 75843
L79219 75956
L79219 76040
L79190 76153
L79162 76209
L79106 76265
L79022 76293
L78881 76293
" />
<path d="M79725 76293
L79725 75984
L79697 75928
L79640 75899
L79528 75899
L79472 75928
" />
<path d="M79725 76265
L79669 76293
L79528 76293
L79472 76265
L79444 76209
L79444 76153
L79472 76096
L79528 76068
L79669 76068
L79725 76040
" />
<path d="M79922 75899
L80147 75899
" />
<path d="M80006 75703
L80006 76209
L80034 76265
L80090 76293
L80147 76293
" />
<path d="M80568 76265
L80512 76293
L80400 76293
L80343 76265
L80315 76209
L80315 75984
L80343 75928
L80400 75899
L80512 75899
L80568 75928
L80597 75984
L80597 76040
L80315 76096
" />
<path d="M80850 76237
L80878 76265
L80850 76293
L80822 76265
L80850 76237
L80850 76293
" />
<path d="M80850 75928
L80878 75956
L80850 75984
L80822 75956
L80850 75928
L80850 75984
" />
<path d="M81553 75759
L81581 75731
L81637 75703
L81778 75703
L81834 75731
L81862 75759
L81890 75815
L81890 75871
L81862 75956
L81525 76293
L81890 76293
" />
<path d="M82256 75703
L82312 75703
L82368 75731
L82396 75759
L82424 75815
L82453 75928
L82453 76068
L82424 76181
L82396 76237
L82368 76265
L82312 76293
L82256 76293
L82199 76265
L82171 76237
L82143 76181
L82115 76068
L82115 75928
L82143 75815
L82171 75759
L82199 75731
L82256 75703
" />
<path d="M83015 76293
L82678 76293
" />
<path d="M82846 76293
L82846 75703
L82790 75787
L82734 75843
L82678 75871
" />
<path d="M83212 75703
L83606 75703
L83352 76293
" />
<path d="M83831 76068
L84280 76068
" />
<path d="M84674 75703
L84730 75703
L84787 75731
L84815 75759
L84843 75815
L84871 75928
L84871 76068
L84843 76181
L84815 76237
L84787 76265
L84730 76293
L84674 76293
L84618 76265
L84590 76237
L84562 76181
L84534 76068
L84534 75928
L84562 75815
L84590 75759
L84618 75731
L84674 75703
" />
<path d="M85405 75703
L85124 75703
L85096 75984
L85124 75956
L85180 75928
L85321 75928
L85377 75956
L85405 75984
L85433 76040
L85433 76181
L85405 76237
L85377 76265
L85321 76293
L85180 76293
L85124 76265
L85096 76237
" />
<path d="M85687 76068
L86136 76068
" />
<path d="M86727 76293
L86390 76293
" />
<path d="M86558 76293
L86558 75703
L86502 75787
L86446 75843
L86390 75871
" />
<path d="M87289 76293
L86952 76293
" />
<path d="M87121 76293
L87121 75703
L87064 75787
L87008 75843
L86952 75871
" />
</g>
<g style="fill:#000000; fill-opacity:0.0; 
stroke:#000000; stroke-width:39.3701; stroke-opacity:1; 
stroke-linecap:round; stroke-linejoin:round;">
</g>
<g style="fill:#000000; fill-opacity:0.0; 
stroke:#000000; stroke-width:59.0551; stroke-opacity:1; 
stroke-linecap:round; stroke-linejoin:round;">
<path d="M69685 76577
L112205 76577
" />
</g>
<g style="fill:#000000; fill-opacity:0.0; 
stroke:#000000; stroke-width:39.3701; stroke-opacity:1; 
stroke-linecap:round; stroke-linejoin:round;">
</g>
<g style="fill:#000000; fill-opacity:0.0; 
stroke:#000000; stroke-width:59.0551; stroke-opacity:1; 
stroke-linecap:round; stroke-linejoin:round;">
<path d="M70220 77395
L70220 76805
" />
<path d="M70557 77395
L70304 77058
" />
<path d="M70557 76805
L70220 77142
" />
<path d="M70810 77395
L70810 77002
" />
<path d="M70810 76805
L70782 76833
L70810 76861
L70838 76833
L70810 76805
L70810 76861
" />
<path d="M71429 77339
L71401 77367
L71316 77395
L71260 77395
L71176 77367
L71120 77311
L71091 77255
L71063 77142
L71063 77058
L71091 76946
L71120 76889
L71176 76833
L71260 76805
L71316 76805
L71401 76833
L71429 76861
" />
<path d="M71935 77395
L71935 77086
L71907 77030
L71851 77002
L71738 77002
L71682 77030
" />
<path d="M71935 77367
L71879 77395
L71738 77395
L71682 77367
L71654 77311
L71654 77255
L71682 77199
L71738 77171
L71879 77171
L71935 77142
" />
<path d="M72469 77395
L72469 76805
" />
<path d="M72469 77367
L72413 77395
L72301 77395
L72244 77367
L72216 77339
L72188 77283
L72188 77114
L72216 77058
L72244 77030
L72301 77002
L72413 77002
L72469 77030
" />
<path d="M73201 77086
L73397 77086
" />
<path d="M73482 77395
L73201 77395
L73201 76805
L73482 76805
" />
<path d="M73735 77339
L73763 77367
L73735 77395
L73707 77367
L73735 77339
L73735 77395
" />
<path d="M74016 77395
L74016 76805
L74157 76805
L74241 76833
L74297 76889
L74325 76946
L74354 77058
L74354 77142
L74325 77255
L74297 77311
L74241 77367
L74157 77395
L74016 77395
" />
<path d="M74607 77339
L74635 77367
L74607 77395
L74579 77367
L74607 77339
L74607 77395
" />
<path d="M74860 77227
L75141 77227
" />
<path d="M74804 77395
L75000 76805
L75197 77395
" />
<path d="M75394 77339
L75422 77367
L75394 77395
L75366 77367
L75394 77339
L75394 77395
" />
<path d="M76575 77395
L76575 76805
" />
<path d="M76631 77171
L76800 77395
" />
<path d="M76800 77002
L76575 77227
" />
<path d="M77053 77395
L77053 77002
" />
<path d="M77053 76805
L77025 76833
L77053 76861
L77081 76833
L77053 76805
L77053 76861
" />
<path d="M77588 77367
L77531 77395
L77419 77395
L77363 77367
L77334 77339
L77306 77283
L77306 77114
L77334 77058
L77363 77030
L77419 77002
L77531 77002
L77588 77030
" />
<path d="M78094 77395
L78094 77086
L78066 77030
L78009 77002
L77897 77002
L77841 77030
" />
<path d="M78094 77367
L78037 77395
L77897 77395
L77841 77367
L77813 77311
L77813 77255
L77841 77199
L77897 77171
L78037 77171
L78094 77142
" />
<path d="M78628 77395
L78628 76805
" />
<path d="M78628 77367
L78572 77395
L78459 77395
L78403 77367
L78375 77339
L78347 77283
L78347 77114
L78375 77058
L78403 77030
L78459 77002
L78572 77002
L78628 77030
" />
<path d="M79612 77002
L79612 77395
" />
<path d="M79472 76777
L79331 77199
L79697 77199
" />
<path d="M79922 77339
L79950 77367
L79922 77395
L79894 77367
L79922 77339
L79922 77395
" />
<path d="M80315 76805
L80372 76805
L80428 76833
L80456 76861
L80484 76917
L80512 77030
L80512 77171
L80484 77283
L80456 77339
L80428 77367
L80372 77395
L80315 77395
L80259 77367
L80231 77339
L80203 77283
L80175 77171
L80175 77030
L80203 76917
L80231 76861
L80259 76833
L80315 76805
" />
<path d="M80765 77339
L80793 77367
L80765 77395
L80737 77367
L80765 77339
L80765 77395
" />
<path d="M81328 76805
L81046 76805
L81018 77086
L81046 77058
L81103 77030
L81243 77030
L81300 77058
L81328 77086
L81356 77142
L81356 77283
L81328 77339
L81300 77367
L81243 77395
L81103 77395
L81046 77367
L81018 77339
" />
</g>
<g style="fill:#000000; fill-opacity:0.0; 
stroke:#000000; stroke-width:39.3701; stroke-opacity:1; 
stroke-linecap:round; stroke-linejoin:round;">
</g>
<g style="fill:#000000; fill-opacity:0.0; 
stroke:#000000; stroke-width:59.0551; stroke-opacity:1; 
stroke-linecap:round; stroke-linejoin:round;">
<path d="M69685 75396
L112205 75396
" />
</g>
<g style="fill:#000000; fill-opacity:0.0; 
stroke:#000000; stroke-width:39.3701; stroke-opacity:1; 
stroke-linecap:round; stroke-linejoin:round;">
</g>
<g style="fill:#000000; fill-opacity:0.0; 
stroke:#000000; stroke-width:118.11; stroke-opacity:1; 
stroke-linecap:round; stroke-linejoin:round;">
<path d="M104022 76293
L103825 76012
" />
<path d="M103684 76293
L103684 75703
L103909 75703
L103965 75731
L103994 75759
L104022 75815
L104022 75899
L103994 75956
L103965 75984
L103909 76012
L103684 76012
" />
<path d="M104500 76265
L104444 76293
L104331 76293
L104275 76265
L104247 76209
L104247 75984
L104275 75928
L104331 75899
L104444 75899
L104500 75928
L104528 75984
L104528 76040
L104247 76096
" />
<path d="M104725 75899
L104865 76293
L105006 75899
" />
<path d="M105231 76237
L105259 76265
L105231 76293
L105203 76265
L105231 76237
L105231 76293
" />
<path d="M105231 75928
L105259 75956
L105231 75984
L105203 75956
L105231 75928
L105231 75984
" />
<path d="M105878 75703
L106075 76293
L106271 75703
" />
<path d="M106778 76293
L106440 76293
" />
<path d="M106609 76293
L106609 75703
L106553 75787
L106496 75843
L106440 75871
" />
<path d="M107031 76237
L107059 76265
L107031 76293
L107003 76265
L107031 76237
L107031 76293
" />
<path d="M107424 75703
L107481 75703
L107537 75731
L107565 75759
L107593 75815
L107621 75928
L107621 76068
L107593 76181
L107565 76237
L107537 76265
L107481 76293
L107424 76293
L107368 76265
L107340 76237
L107312 76181
L107284 76068
L107284 75928
L107312 75815
L107340 75759
L107368 75731
L107424 75703
" />
</g>
<g style="fill:#000000; fill-opacity:0.0; 
stroke:#000000; stroke-width:39.3701; stroke-opacity:1; 
stroke-linecap:round; stroke-linejoin:round;">
</g>
<g style="fill:#000000; fill-opacity:0.0; 
stroke:#000000; stroke-width:59.0551; stroke-opacity:1; 
stroke-linecap:round; stroke-linejoin:round;">
<path d="M70192 76265
L70276 76293
L70417 76293
L70473 76265
L70501 76237
L70529 76181
L70529 76124
L70501 76068
L70473 76040
L70417 76012
L70304 75984
L70248 75956
L70220 75928
L70192 75871
L70192 75815
L70220 75759
L70248 75731
L70304 75703
L70445 75703
L70529 75731
" />
<path d="M70782 76293
L70782 75899
" />
<path d="M70782 75703
L70754 75731
L70782 75759
L70810 75731
L70782 75703
L70782 75759
" />
<path d="M71007 75899
L71316 75899
L71007 76293
L71316 76293
" />
<path d="M71766 76265
L71710 76293
L71598 76293
L71541 76265
L71513 76209
L71513 75984
L71541 75928
L71598 75899
L71710 75899
L71766 75928
L71795 75984
L71795 76040
L71513 76096
" />
<path d="M72048 76237
L72076 76265
L72048 76293
L72019 76265
L72048 76237
L72048 76293
" />
<path d="M72048 75928
L72076 75956
L72048 75984
L72019 75956
L72048 75928
L72048 75984
" />
<path d="M72751 76124
L73032 76124
" />
<path d="M72694 76293
L72891 75703
L73088 76293
" />
<path d="M73538 75899
L73538 76293
" />
<path d="M73397 75674
L73257 76096
L73622 76096
" />
</g>
<g style="fill:#000000; fill-opacity:0.0; 
stroke:#000000; stroke-width:39.3701; stroke-opacity:1; 
stroke-linecap:round; stroke-linejoin:round;">
</g>
<g style="fill:#000000; fill-opacity:0.0; 
stroke:#000000; stroke-width:59.0551; stroke-opacity:1; 
stroke-linecap:round; stroke-linejoin:round;">
<path d="M103684 77395
L103684 76805
" />
<path d="M104219 77395
L104219 76805
" />
<path d="M104219 77367
L104162 77395
L104050 77395
L103994 77367
L103965 77339
L103937 77283
L103937 77114
L103965 77058
L103994 77030
L104050 77002
L104162 77002
L104219 77030
" />
<path d="M104500 77339
L104528 77367
L104500 77395
L104472 77367
L104500 77339
L104500 77395
" />
<path d="M104500 77030
L104528 77058
L104500 77086
L104472 77058
L104500 77030
L104500 77086
" />
<path d="M105540 77395
L105203 77395
" />
<path d="M105372 77395
L105372 76805
L105315 76889
L105259 76946
L105203 76974
" />
<path d="M106215 76777
L105709 77536
" />
<path d="M106721 77395
L106384 77395
" />
<path d="M106553 77395
L106553 76805
L106496 76889
L106440 76946
L106384 76974
" />
</g>
<g style="fill:#000000; fill-opacity:0.0; 
stroke:#000000; stroke-width:39.3701; stroke-opacity:1; 
stroke-linecap:round; stroke-linejoin:round;">
</g>
<g style="fill:#000000; fill-opacity:0.0; 
stroke:#000000; stroke-width:59.0551; stroke-opacity:1; 
stroke-linecap:round; stroke-linejoin:round;">
<path d="M69685 73821
L112205 73821
" />
</g>
<g style="fill:#000000; fill-opacity:0.0; 
stroke:#000000; stroke-width:39.3701; stroke-opacity:1; 
stroke-linecap:round; stroke-linejoin:round;">
</g>
<g style="fill:#000000; fill-opacity:0.0; 
stroke:#000000; stroke-width:157.48; stroke-opacity:1; 
stroke-linecap:round; stroke-linejoin:round;">
<path d="M70257 74099
L70707 74099
" />
<path d="M70384 74886
L70482 74099
" />
<path d="M70871 74886
L70937 74361
" />
<path d="M70970 74099
L70927 74136
L70960 74174
L71002 74136
L70970 74099
L70960 74174
" />
<path d="M71199 74361
L71499 74361
" />
<path d="M71345 74099
L71260 74774
L71288 74849
L71359 74886
L71434 74886
" />
<path d="M71809 74886
L71738 74849
L71710 74774
L71795 74099
" />
<path d="M72413 74849
L72334 74886
L72184 74886
L72113 74849
L72085 74774
L72123 74474
L72169 74399
L72249 74361
L72399 74361
L72469 74399
L72498 74474
L72488 74549
L72104 74624
" />
<path d="M72793 74811
L72826 74849
L72783 74886
L72751 74849
L72793 74811
L72783 74886
" />
<path d="M72844 74399
L72877 74436
L72835 74474
L72802 74436
L72844 74399
L72835 74474
" />
<path d="M73726 74849
L73833 74886
L74021 74886
L74100 74849
L74143 74811
L74190 74736
L74199 74661
L74171 74586
L74138 74549
L74068 74511
L73922 74474
L73852 74436
L73819 74399
L73791 74324
L73801 74249
L73847 74174
L73890 74136
L73969 74099
L74157 74099
L74265 74136
" />
<path d="M74508 74886
L74574 74361
" />
<path d="M74607 74099
L74564 74136
L74597 74174
L74639 74136
L74607 74099
L74597 74174
" />
<path d="M74949 74361
L74883 74886
" />
<path d="M74939 74436
L74982 74399
L75061 74361
L75174 74361
L75244 74399
L75272 74474
L75221 74886
" />
<path d="M75999 74361
L75919 74999
L75872 75074
L75830 75111
L75750 75149
L75638 75149
L75567 75111
" />
<path d="M75938 74849
L75858 74886
L75708 74886
L75638 74849
L75605 74811
L75577 74736
L75605 74511
L75652 74436
L75694 74399
L75774 74361
L75924 74361
L75994 74399
" />
<path d="M76421 74886
L76350 74849
L76322 74774
L76406 74099
" />
<path d="M77025 74849
L76945 74886
L76795 74886
L76725 74849
L76697 74774
L76735 74474
L76781 74399
L76861 74361
L77011 74361
L77081 74399
L77109 74474
L77100 74549
L76716 74624
" />
<path d="M77199 74961
L77798 74961
" />
<path d="M77948 74361
L78248 74361
" />
<path d="M78094 74099
L78009 74774
L78037 74849
L78108 74886
L78183 74886
" />
<path d="M78445 74886
L78511 74361
" />
<path d="M78492 74511
L78539 74436
L78581 74399
L78661 74361
L78736 74361
" />
<path d="M79270 74886
L79322 74474
L79294 74399
L79223 74361
L79073 74361
L78994 74399
" />
<path d="M79275 74849
L79195 74886
L79008 74886
L78937 74849
L78909 74774
L78919 74699
L78965 74624
L79045 74586
L79233 74586
L79312 74549
" />
<path d="M79711 74361
L79645 74886
" />
<path d="M79701 74436
L79744 74399
L79823 74361
L79936 74361
L80006 74399
L80034 74474
L79983 74886
" />
<path d="M80325 74849
L80395 74886
L80545 74886
L80625 74849
L80672 74774
L80676 74736
L80648 74661
L80578 74624
L80465 74624
L80395 74586
L80367 74511
L80372 74474
L80418 74399
L80498 74361
L80611 74361
L80681 74399
" />
<path d="M80995 74886
L81061 74361
" />
<path d="M81093 74099
L81051 74136
L81084 74174
L81126 74136
L81093 74099
L81084 74174
" />
<path d="M81337 74849
L81407 74886
L81557 74886
L81637 74849
L81684 74774
L81689 74736
L81660 74661
L81590 74624
L81478 74624
L81407 74586
L81379 74511
L81384 74474
L81431 74399
L81510 74361
L81623 74361
L81693 74399
" />
<path d="M81960 74361
L82260 74361
" />
<path d="M82106 74099
L82021 74774
L82049 74849
L82120 74886
L82195 74886
" />
<path d="M82570 74886
L82499 74849
L82467 74811
L82439 74736
L82467 74511
L82513 74436
L82556 74399
L82635 74361
L82748 74361
L82818 74399
L82851 74436
L82879 74511
L82851 74736
L82804 74811
L82762 74849
L82682 74886
L82570 74886
" />
<path d="M83170 74886
L83235 74361
" />
<path d="M83217 74511
L83263 74436
L83306 74399
L83385 74361
L83460 74361
" />
<path d="M83460 74961
L84060 74961
" />
<path d="M84594 74886
L84646 74474
L84618 74399
L84548 74361
L84398 74361
L84318 74399
" />
<path d="M84599 74849
L84519 74886
L84332 74886
L84262 74849
L84234 74774
L84243 74699
L84290 74624
L84370 74586
L84557 74586
L84637 74549
" />
<path d="M84969 74886
L85035 74361
" />
<path d="M85026 74436
L85068 74399
L85148 74361
L85260 74361
L85330 74399
L85358 74474
L85307 74886
" />
<path d="M85358 74474
L85405 74399
L85485 74361
L85597 74361
L85668 74399
L85696 74474
L85644 74886
" />
<path d="M86085 74361
L85986 75149
" />
<path d="M86080 74399
L86160 74361
L86310 74361
L86380 74399
L86413 74436
L86441 74511
L86413 74736
L86366 74811
L86324 74849
L86244 74886
L86094 74886
L86024 74849
" />
</g>
<g style="fill:#000000; fill-opacity:0.0; 
stroke:#000000; stroke-width:39.3701; stroke-opacity:1; 
stroke-linecap:round; stroke-linejoin:round;">
</g>
<g style="fill:#000000; fill-opacity:0.0; 
stroke:#000000; stroke-width:59.0551; stroke-opacity:1; 
stroke-linecap:round; stroke-linejoin:round;">
<path d="M70417 73070
L70220 73070
" />
<path d="M70220 73380
L70220 72789
L70501 72789
" />
<path d="M70726 73380
L70726 72986
" />
<path d="M70726 72789
L70698 72817
L70726 72845
L70754 72817
L70726 72789
L70726 72845
" />
<path d="M71091 73380
L71035 73352
L71007 73295
L71007 72789
" />
<path d="M71541 73352
L71485 73380
L71373 73380
L71316 73352
L71288 73295
L71288 73070
L71316 73014
L71373 72986
L71485 72986
L71541 73014
L71570 73070
L71570 73127
L71288 73183
" />
<path d="M71823 73323
L71851 73352
L71823 73380
L71795 73352
L71823 73323
L71823 73380
" />
<path d="M71823 73014
L71851 73042
L71823 73070
L71795 73042
L71823 73014
L71823 73070
" />
<path d="M72526 73352
L72610 73380
L72751 73380
L72807 73352
L72835 73323
L72863 73267
L72863 73211
L72835 73155
L72807 73127
L72751 73099
L72638 73070
L72582 73042
L72554 73014
L72526 72958
L72526 72902
L72554 72845
L72582 72817
L72638 72789
L72779 72789
L72863 72817
" />
<path d="M73116 73380
L73116 72986
" />
<path d="M73116 72789
L73088 72817
L73116 72845
L73144 72817
L73116 72789
L73116 72845
" />
<path d="M73397 72986
L73397 73380
" />
<path d="M73397 73042
L73426 73014
L73482 72986
L73566 72986
L73622 73014
L73651 73070
L73651 73380
" />
<path d="M74185 72986
L74185 73464
L74157 73520
L74129 73548
L74072 73577
L73988 73577
L73932 73548
" />
<path d="M74185 73352
L74129 73380
L74016 73380
L73960 73352
L73932 73323
L73904 73267
L73904 73099
L73932 73042
L73960 73014
L74016 72986
L74129 72986
L74185 73014
" />
<path d="M74550 73380
L74494 73352
L74466 73295
L74466 72789
" />
<path d="M75000 73352
L74944 73380
L74832 73380
L74775 73352
L74747 73295
L74747 73070
L74775 73014
L74832 72986
L74944 72986
L75000 73014
L75028 73070
L75028 73127
L74747 73183
" />
<path d="M75141 73436
L75591 73436
" />
<path d="M75647 72986
L75872 72986
" />
<path d="M75732 72789
L75732 73295
L75760 73352
L75816 73380
L75872 73380
" />
<path d="M76069 73380
L76069 72986
" />
<path d="M76069 73099
L76097 73042
L76125 73014
L76181 72986
L76238 72986
" />
<path d="M76688 73380
L76688 73070
L76660 73014
L76603 72986
L76491 72986
L76435 73014
" />
<path d="M76688 73352
L76631 73380
L76491 73380
L76435 73352
L76406 73295
L76406 73239
L76435 73183
L76491 73155
L76631 73155
L76688 73127
" />
<path d="M76969 72986
L76969 73380
" />
<path d="M76969 73042
L76997 73014
L77053 72986
L77138 72986
L77194 73014
L77222 73070
L77222 73380
" />
<path d="M77475 73352
L77531 73380
L77644 73380
L77700 73352
L77728 73295
L77728 73267
L77700 73211
L77644 73183
L77559 73183
L77503 73155
L77475 73099
L77475 73070
L77503 73014
L77559 72986
L77644 72986
L77700 73014
" />
<path d="M77981 73380
L77981 72986
" />
<path d="M77981 72789
L77953 72817
L77981 72845
L78009 72817
L77981 72789
L77981 72845
" />
<path d="M78234 73352
L78291 73380
L78403 73380
L78459 73352
L78487 73295
L78487 73267
L78459 73211
L78403 73183
L78319 73183
L78262 73155
L78234 73099
L78234 73070
L78262 73014
L78319 72986
L78403 72986
L78459 73014
" />
<path d="M78656 72986
L78881 72986
" />
<path d="M78741 72789
L78741 73295
L78769 73352
L78825 73380
L78881 73380
" />
<path d="M79162 73380
L79106 73352
L79078 73323
L79050 73267
L79050 73099
L79078 73042
L79106 73014
L79162 72986
L79247 72986
L79303 73014
L79331 73042
L79359 73099
L79359 73267
L79331 73323
L79303 73352
L79247 73380
L79162 73380
" />
<path d="M79612 73380
L79612 72986
" />
<path d="M79612 73099
L79640 73042
L79669 73014
L79725 72986
L79781 72986
" />
<path d="M79837 73436
L80287 73436
" />
<path d="M80400 73211
L80681 73211
" />
<path d="M80343 73380
L80540 72789
L80737 73380
" />
<path d="M80934 73380
L80934 72789
L81131 73211
L81328 72789
L81328 73380
" />
<path d="M81609 73380
L81609 72789
L81834 72789
L81890 72817
L81918 72845
L81946 72902
L81946 72986
L81918 73042
L81890 73070
L81834 73099
L81609 73099
" />
<path d="M82199 73323
L82228 73352
L82199 73380
L82171 73352
L82199 73323
L82199 73380
" />
<path d="M82481 73380
L82481 72789
" />
<path d="M82537 73155
L82706 73380
" />
<path d="M82706 72986
L82481 73211
" />
<path d="M82959 73380
L82959 72986
" />
<path d="M82959 72789
L82931 72817
L82959 72845
L82987 72817
L82959 72789
L82959 72845
" />
<path d="M83493 73352
L83437 73380
L83324 73380
L83268 73352
L83240 73323
L83212 73267
L83212 73099
L83240 73042
L83268 73014
L83324 72986
L83437 72986
L83493 73014
" />
<path d="M83999 73380
L83999 73070
L83971 73014
L83915 72986
L83802 72986
L83746 73014
" />
<path d="M83999 73352
L83943 73380
L83802 73380
L83746 73352
L83718 73295
L83718 73239
L83746 73183
L83802 73155
L83943 73155
L83999 73127
" />
<path d="M84534 73380
L84534 72789
" />
<path d="M84534 73352
L84477 73380
L84365 73380
L84309 73352
L84280 73323
L84252 73267
L84252 73099
L84280 73042
L84309 73014
L84365 72986
L84477 72986
L84534 73014
" />
<path d="M84674 73436
L85124 73436
" />
<path d="M85265 72986
L85265 73577
" />
<path d="M85265 73014
L85321 72986
L85433 72986
L85490 73014
L85518 73042
L85546 73099
L85546 73267
L85518 73323
L85490 73352
L85433 73380
L85321 73380
L85265 73352
" />
<path d="M86052 73352
L85996 73380
L85883 73380
L85827 73352
L85799 73323
L85771 73267
L85771 73099
L85799 73042
L85827 73014
L85883 72986
L85996 72986
L86052 73014
" />
<path d="M86305 73380
L86305 72789
" />
<path d="M86305 73014
L86361 72986
L86474 72986
L86530 73014
L86558 73042
L86586 73099
L86586 73267
L86558 73323
L86530 73352
L86474 73380
L86361 73380
L86305 73352
" />
</g>
<g style="fill:#000000; fill-opacity:0.0; 
stroke:#000000; stroke-width:39.3701; stroke-opacity:1; 
stroke-linecap:round; stroke-linejoin:round;">
</g>
<g style="fill:#000000; fill-opacity:0.0; 
stroke:#000000; stroke-width:59.0551; stroke-opacity:1; 
stroke-linecap:round; stroke-linejoin:round;">
<path d="M69685 71459
L112205 71459
" />
</g>
<g style="fill:#000000; fill-opacity:0.0; 
stroke:#000000; stroke-width:39.3701; stroke-opacity:1; 
stroke-linecap:round; stroke-linejoin:round;">
</g>
<g style="fill:#000000; fill-opacity:0.0; 
stroke:#000000; stroke-width:59.0551; stroke-opacity:1; 
stroke-linecap:round; stroke-linejoin:round;">
<path d="M70192 72289
L70276 72317
L70417 72317
L70473 72289
L70501 72260
L70529 72204
L70529 72148
L70501 72092
L70473 72064
L70417 72036
L70304 72007
L70248 71979
L70220 71951
L70192 71895
L70192 71839
L70220 71782
L70248 71754
L70304 71726
L70445 71726
L70529 71754
" />
<path d="M70782 72317
L70782 71726
" />
<path d="M71035 72317
L71035 72007
L71007 71951
L70951 71923
L70867 71923
L70810 71951
L70782 71979
" />
<path d="M71541 72289
L71485 72317
L71373 72317
L71316 72289
L71288 72232
L71288 72007
L71316 71951
L71373 71923
L71485 71923
L71541 71951
L71570 72007
L71570 72064
L71288 72120
" />
<path d="M72048 72289
L71991 72317
L71879 72317
L71823 72289
L71795 72232
L71795 72007
L71823 71951
L71879 71923
L71991 71923
L72048 71951
L72076 72007
L72076 72064
L71795 72120
" />
<path d="M72244 71923
L72469 71923
" />
<path d="M72329 71726
L72329 72232
L72357 72289
L72413 72317
L72469 72317
" />
<path d="M72666 72260
L72694 72289
L72666 72317
L72638 72289
L72666 72260
L72666 72317
" />
<path d="M72666 71951
L72694 71979
L72666 72007
L72638 71979
L72666 71951
L72666 72007
" />
</g>
<g style="fill:#000000; fill-opacity:0.0; 
stroke:#000000; stroke-width:39.3701; stroke-opacity:1; 
stroke-linecap:round; stroke-linejoin:round;">
</g>
<g style="fill:#000000; fill-opacity:0.0; 
stroke:#000000; stroke-width:118.11; stroke-opacity:1; 
stroke-linecap:round; stroke-linejoin:round;">
<path d="M70417 70826
L70220 70826
" />
<path d="M70220 71136
L70220 70545
L70501 70545
" />
<path d="M70726 71136
L70726 70742
" />
<path d="M70726 70545
L70698 70573
L70726 70601
L70754 70573
L70726 70545
L70726 70601
" />
<path d="M70979 71108
L71035 71136
L71148 71136
L71204 71108
L71232 71051
L71232 71023
L71204 70967
L71148 70939
L71063 70939
L71007 70911
L70979 70854
L70979 70826
L71007 70770
L71063 70742
L71148 70742
L71204 70770
" />
<path d="M70979 70517
L71091 70601
L71204 70517
" />
<path d="M71710 71108
L71654 71136
L71541 71136
L71485 71108
L71457 71051
L71457 70826
L71485 70770
L71541 70742
L71654 70742
L71710 70770
L71738 70826
L71738 70883
L71457 70939
" />
<path d="M71991 71136
L71991 70742
" />
<path d="M71991 70854
L72019 70798
L72048 70770
L72104 70742
L72160 70742
" />
<path d="M72329 71108
L72385 71136
L72498 71136
L72554 71108
L72582 71051
L72582 71023
L72554 70967
L72498 70939
L72413 70939
L72357 70911
L72329 70854
L72329 70826
L72357 70770
L72413 70742
L72498 70742
L72554 70770
" />
<path d="M73763 71136
L73735 71136
L73679 71108
L73594 71023
L73454 70854
L73397 70770
L73369 70686
L73369 70629
L73397 70573
L73454 70545
L73482 70545
L73538 70573
L73566 70629
L73566 70658
L73538 70714
L73510 70742
L73341 70854
L73313 70883
L73285 70939
L73285 71023
L73313 71079
L73341 71108
L73397 71136
L73482 71136
L73538 71108
L73566 71079
L73651 70967
L73679 70883
L73679 70826
" />
<path d="M74719 71108
L74663 71136
L74550 71136
L74494 71108
L74466 71079
L74438 71023
L74438 70854
L74466 70798
L74494 70770
L74550 70742
L74663 70742
L74719 70770
" />
<path d="M75057 71136
L75000 71108
L74972 71079
L74944 71023
L74944 70854
L74972 70798
L75000 70770
L75057 70742
L75141 70742
L75197 70770
L75225 70798
L75253 70854
L75253 71023
L75225 71079
L75197 71108
L75141 71136
L75057 71136
" />
</g>
<g style="fill:#000000; fill-opacity:0.0; 
stroke:#000000; stroke-width:39.3701; stroke-opacity:1; 
stroke-linecap:round; stroke-linejoin:round;">
</g>
<g style="fill:#000000; fill-opacity:0.0; 
stroke:#000000; stroke-width:59.0551; stroke-opacity:1; 
stroke-linecap:round; stroke-linejoin:round;">
<path d="M70473 69955
L70473 69645
L70445 69589
L70388 69561
L70276 69561
L70220 69589
" />
<path d="M70473 69926
L70417 69955
L70276 69955
L70220 69926
L70192 69870
L70192 69814
L70220 69758
L70276 69730
L70417 69730
L70473 69701
" />
<path d="M71007 69561
L71007 69955
" />
<path d="M70754 69561
L70754 69870
L70782 69926
L70838 69955
L70923 69955
L70979 69926
L71007 69898
" />
<path d="M71204 69561
L71429 69561
" />
<path d="M71288 69364
L71288 69870
L71316 69926
L71373 69955
L71429 69955
" />
<path d="M71710 69955
L71654 69926
L71626 69898
L71598 69842
L71598 69673
L71626 69617
L71654 69589
L71710 69561
L71795 69561
L71851 69589
L71879 69617
L71907 69673
L71907 69842
L71879 69898
L71851 69926
L71795 69955
L71710 69955
" />
<path d="M72160 69955
L72160 69561
" />
<path d="M72160 69673
L72188 69617
L72216 69589
L72273 69561
L72329 69561
" />
<path d="M72498 69926
L72554 69955
L72666 69955
L72723 69926
L72751 69870
L72751 69842
L72723 69786
L72666 69758
L72582 69758
L72526 69730
L72498 69673
L72498 69645
L72526 69589
L72582 69561
L72666 69561
L72723 69589
" />
</g>
<g style="fill:#000000; fill-opacity:0.0; 
stroke:#000000; stroke-width:39.3701; stroke-opacity:1; 
stroke-linecap:round; stroke-linejoin:round;">
</g>
<g style="fill:#000000; fill-opacity:0.0; 
stroke:#000000; stroke-width:59.0551; stroke-opacity:1; 
stroke-linecap:round; stroke-linejoin:round;">
<path d="M70220 68773
L70220 68183
L70360 68183
L70445 68211
L70501 68267
L70529 68323
L70557 68436
L70557 68520
L70529 68633
L70501 68689
L70445 68745
L70360 68773
L70220 68773
" />
<path d="M71063 68773
L71063 68464
L71035 68408
L70979 68380
L70867 68380
L70810 68408
" />
<path d="M71063 68745
L71007 68773
L70867 68773
L70810 68745
L70782 68689
L70782 68633
L70810 68577
L70867 68548
L71007 68548
L71063 68520
" />
<path d="M70782 68211
L71063 68211
" />
<path d="M71288 68380
L71429 68773
L71570 68380
" />
<path d="M71795 68773
L71795 68380
" />
<path d="M71795 68183
L71766 68211
L71795 68239
L71823 68211
L71795 68183
L71795 68239
" />
<path d="M72048 68745
L72104 68773
L72216 68773
L72273 68745
L72301 68689
L72301 68661
L72273 68605
L72216 68577
L72132 68577
L72076 68548
L72048 68492
L72048 68464
L72076 68408
L72132 68380
L72216 68380
L72273 68408
" />
<path d="M73201 68464
L73004 68464
" />
<path d="M73004 68773
L73004 68183
L73285 68183
" />
<path d="M73510 68773
L73510 68380
" />
<path d="M73510 68183
L73482 68211
L73510 68239
L73538 68211
L73510 68183
L73510 68239
" />
<path d="M73763 68745
L73819 68773
L73932 68773
L73988 68745
L74016 68689
L74016 68661
L73988 68605
L73932 68577
L73847 68577
L73791 68548
L73763 68492
L73763 68464
L73791 68408
L73847 68380
L73932 68380
L73988 68408
" />
<path d="M73763 68155
L73876 68239
L73988 68155
" />
<path d="M74494 68745
L74438 68773
L74325 68773
L74269 68745
L74241 68689
L74241 68464
L74269 68408
L74325 68380
L74438 68380
L74494 68408
L74522 68464
L74522 68520
L74241 68577
" />
<path d="M74775 68773
L74775 68380
" />
<path d="M74775 68492
L74804 68436
L74832 68408
L74888 68380
L74944 68380
" />
<path d="M75113 68745
L75169 68773
L75282 68773
L75338 68745
L75366 68689
L75366 68661
L75338 68605
L75282 68577
L75197 68577
L75141 68548
L75113 68492
L75113 68464
L75141 68408
L75197 68380
L75282 68380
L75338 68408
" />
</g>
<g style="fill:#000000; fill-opacity:0.0; 
stroke:#000000; stroke-width:39.3701; stroke-opacity:1; 
stroke-linecap:round; stroke-linejoin:round;">
</g>
<g style="fill:#000000; fill-opacity:0.0; 
stroke:#000000; stroke-width:59.0551; stroke-opacity:1; 
stroke-linecap:round; stroke-linejoin:round;">
<path d="M70220 67592
L70220 67002
L70445 67002
L70501 67030
L70529 67058
L70557 67114
L70557 67199
L70529 67255
L70501 67283
L70445 67311
L70220 67311
" />
<path d="M71148 67536
L71120 67564
L71035 67592
L70979 67592
L70895 67564
L70838 67508
L70810 67452
L70782 67339
L70782 67255
L70810 67142
L70838 67086
L70895 67030
L70979 67002
L71035 67002
L71120 67030
L71148 67058
" />
<path d="M71598 67283
L71682 67311
L71710 67339
L71738 67395
L71738 67480
L71710 67536
L71682 67564
L71626 67592
L71401 67592
L71401 67002
L71598 67002
L71654 67030
L71682 67058
L71710 67114
L71710 67171
L71682 67227
L71654 67255
L71598 67283
L71401 67283
" />
<path d="M71851 67649
L72301 67649
" />
<path d="M72779 67536
L72751 67564
L72666 67592
L72610 67592
L72526 67564
L72469 67508
L72441 67452
L72413 67339
L72413 67255
L72441 67142
L72469 67086
L72526 67030
L72610 67002
L72666 67002
L72751 67030
L72779 67058
" />
<path d="M73004 67424
L73285 67424
" />
<path d="M72947 67592
L73144 67002
L73341 67592
" />
<path d="M73538 67592
L73538 67002
L73679 67002
L73763 67030
L73819 67086
L73847 67142
L73876 67255
L73876 67339
L73847 67452
L73819 67508
L73763 67564
L73679 67592
L73538 67592
" />
<path d="M74579 67592
L74579 67002
" />
<path d="M74635 67367
L74804 67592
" />
<path d="M74804 67199
L74579 67424
" />
<path d="M75310 67199
L75310 67592
" />
<path d="M75057 67199
L75057 67508
L75085 67564
L75141 67592
L75225 67592
L75282 67564
L75310 67536
" />
<path d="M75591 67592
L75591 67199
" />
<path d="M75591 67311
L75619 67255
L75647 67227
L75703 67199
L75760 67199
" />
<path d="M75928 67564
L75985 67592
L76097 67592
L76153 67564
L76181 67508
L76181 67480
L76153 67424
L76097 67395
L76013 67395
L75956 67367
L75928 67311
L75928 67283
L75956 67227
L76013 67199
L76097 67199
L76153 67227
" />
<path d="M76406 67564
L76463 67592
L76575 67592
L76631 67564
L76660 67508
L76660 67480
L76631 67424
L76575 67395
L76491 67395
L76435 67367
L76406 67311
L76406 67283
L76435 67227
L76491 67199
L76575 67199
L76631 67227
" />
</g>
<g style="fill:#000000; fill-opacity:0.0; 
stroke:#000000; stroke-width:39.3701; stroke-opacity:1; 
stroke-linecap:round; stroke-linejoin:round;">
</g>
<g style="fill:#000000; fill-opacity:0.0; 
stroke:#000000; stroke-width:59.0551; stroke-opacity:1; 
stroke-linecap:round; stroke-linejoin:round;">
<path d="M77559 75396
L77559 76577
" />
</g>
<g style="fill:#000000; fill-opacity:0.0; 
stroke:#000000; stroke-width:39.3701; stroke-opacity:1; 
stroke-linecap:round; stroke-linejoin:round;">
</g>
<g style="fill:#000000; fill-opacity:0.0; 
stroke:#000000; stroke-width:59.0551; stroke-opacity:1; 
stroke-linecap:round; stroke-linejoin:round;">
<path d="M102756 75396
L102756 77955
" />
</g>
<g style="fill:#008484; fill-opacity:0.0; 
stroke:#008484; stroke-width:59.0551; stroke-opacity:1; 
stroke-linecap:round; stroke-linejoin:round;">
</g>
<g style="fill:#008484; fill-opacity:0.0; 
stroke:#008484; stroke-width:118.11; stroke-opacity:1; 
stroke-linecap:round; stroke-linejoin:round;">
<path d="M39722 23545
L39722 23095
" />
<path d="M39947 23320
L39497 23320
" />
<path d="M39722 22364
L39722 21914
" />
<path d="M25317 34524
L25317 34974
" />
<path d="M25092 34749
L25542 34749
" />
<path d="M25317 35705
L25317 36155
" />
<path d="M25337 22884
L25337 23334
" />
<path d="M25112 23109
L25562 23109
" />
<path d="M25337 24065
L25337 24515
" />
<path d="M35348 20739
L35404 20767
L35517 20767
L35573 20739
L35601 20682
L35601 20654
L35573 20598
L35517 20570
L35433 20570
L35376 20542
L35348 20485
L35348 20457
L35376 20401
L35433 20373
L35517 20373
L35573 20401
" />
<path d="M35854 20767
L35854 20373
" />
<path d="M35854 20176
L35826 20204
L35854 20232
L35883 20204
L35854 20176
L35854 20232
" />
<path d="M36389 20373
L36389 20851
L36361 20907
L36332 20935
L36276 20964
L36192 20964
L36136 20935
" />
<path d="M36389 20739
L36332 20767
L36220 20767
L36164 20739
L36136 20710
L36107 20654
L36107 20485
L36136 20429
L36164 20401
L36220 20373
L36332 20373
L36389 20401
" />
<path d="M36670 20373
L36670 20767
" />
<path d="M36670 20429
L36698 20401
L36754 20373
L36839 20373
L36895 20401
L36923 20457
L36923 20767
" />
<path d="M37457 20767
L37457 20457
L37429 20401
L37373 20373
L37260 20373
L37204 20401
" />
<path d="M37457 20739
L37401 20767
L37260 20767
L37204 20739
L37176 20682
L37176 20626
L37204 20570
L37260 20542
L37401 20542
L37457 20514
" />
<path d="M37823 20767
L37767 20739
L37739 20682
L37739 20176
" />
<path d="M38582 20767
L38526 20739
L38498 20710
L38470 20654
L38470 20485
L38498 20429
L38526 20401
L38582 20373
L38667 20373
L38723 20401
L38751 20429
L38779 20485
L38779 20654
L38751 20710
L38723 20739
L38667 20767
L38582 20767
" />
<path d="M39285 20373
L39285 20767
" />
<path d="M39032 20373
L39032 20682
L39060 20739
L39116 20767
L39201 20767
L39257 20739
L39285 20710
" />
<path d="M39482 20373
L39707 20373
" />
<path d="M39566 20176
L39566 20682
L39595 20739
L39651 20767
L39707 20767
" />
<path d="M25861 25373
L25861 25964
" />
<path d="M25861 25401
L25917 25373
L26029 25373
L26086 25401
L26114 25429
L26142 25485
L26142 25654
L26114 25710
L26086 25739
L26029 25767
L25917 25767
L25861 25739
" />
<path d="M26479 25767
L26423 25739
L26395 25710
L26367 25654
L26367 25485
L26395 25429
L26423 25401
L26479 25373
L26564 25373
L26620 25401
L26648 25429
L26676 25485
L26676 25654
L26648 25710
L26620 25739
L26564 25767
L26479 25767
" />
<path d="M26873 25373
L26985 25767
L27098 25485
L27210 25767
L27323 25373
" />
<path d="M27773 25739
L27717 25767
L27604 25767
L27548 25739
L27520 25682
L27520 25457
L27548 25401
L27604 25373
L27717 25373
L27773 25401
L27801 25457
L27801 25514
L27520 25570
" />
<path d="M28054 25767
L28054 25373
" />
<path d="M28054 25485
L28082 25429
L28110 25401
L28167 25373
L28223 25373
" />
<path d="M25643 33239
L25700 33267
L25812 33267
L25868 33239
L25897 33182
L25897 33154
L25868 33098
L25812 33070
L25728 33070
L25672 33042
L25643 32985
L25643 32957
L25672 32901
L25728 32873
L25812 32873
L25868 32901
" />
<path d="M26150 33267
L26150 32873
" />
<path d="M26150 32676
L26122 32704
L26150 32732
L26178 32704
L26150 32676
L26150 32732
" />
<path d="M26684 32873
L26684 33351
L26656 33407
L26628 33435
L26571 33464
L26487 33464
L26431 33435
" />
<path d="M26684 33239
L26628 33267
L26515 33267
L26459 33239
L26431 33210
L26403 33154
L26403 32985
L26431 32929
L26459 32901
L26515 32873
L26628 32873
L26684 32901
" />
<path d="M26965 32873
L26965 33267
" />
<path d="M26965 32929
L26993 32901
L27050 32873
L27134 32873
L27190 32901
L27218 32957
L27218 33267
" />
<path d="M27753 33267
L27753 32957
L27724 32901
L27668 32873
L27556 32873
L27500 32901
" />
<path d="M27753 33239
L27696 33267
L27556 33267
L27500 33239
L27471 33182
L27471 33126
L27500 33070
L27556 33042
L27696 33042
L27753 33014
" />
<path d="M28118 33267
L28062 33239
L28034 33182
L28034 32676
" />
<path d="M28793 33267
L28793 32873
" />
<path d="M28793 32676
L28765 32704
L28793 32732
L28821 32704
L28793 32676
L28793 32732
" />
<path d="M29074 32873
L29074 33267
" />
<path d="M29074 32929
L29102 32901
L29159 32873
L29243 32873
L29299 32901
L29327 32957
L29327 33267
" />
<path d="M26811 20765
L26811 20174
L26951 20174
L27035 20202
L27092 20258
L27120 20315
L27148 20427
L27148 20512
L27120 20624
L27092 20680
L27035 20737
L26951 20765
L26811 20765
" />
<path d="M27401 20708
L27429 20737
L27401 20765
L27373 20737
L27401 20708
L27401 20765
" />
<path d="M27879 20455
L27682 20455
" />
<path d="M27682 20765
L27682 20174
L27964 20174
" />
<path d="M28188 20708
L28217 20737
L28188 20765
L28160 20737
L28188 20708
L28188 20765
" />
<path d="M26487 21234
L26515 21206
L26571 21178
L26712 21178
L26768 21206
L26796 21234
L26825 21291
L26825 21347
L26796 21431
L26459 21769
L26825 21769
" />
<path d="M27190 21178
L27246 21178
L27303 21206
L27331 21234
L27359 21291
L27387 21403
L27387 21544
L27359 21656
L27331 21712
L27303 21741
L27246 21769
L27190 21769
L27134 21741
L27106 21712
L27078 21656
L27050 21544
L27050 21403
L27078 21291
L27106 21234
L27134 21206
L27190 21178
" />
<path d="M27949 21769
L27612 21769
" />
<path d="M27781 21769
L27781 21178
L27724 21262
L27668 21319
L27612 21347
" />
<path d="M28146 21178
L28540 21178
L28287 21769
" />
</g>
<g style="fill:#C2C200; fill-opacity:0.0; 
stroke:#C2C200; stroke-width:118.11; stroke-opacity:1; 
stroke-linecap:round; stroke-linejoin:round;">
</g>
<g style="fill:#C2C200; fill-opacity:0.0; 
stroke:#C2C200; stroke-width:59.0551; stroke-opacity:1; 
stroke-linecap:round; stroke-linejoin:round;">
<path d="M25000 37000
L25000 19000
" />
<path d="M40500 37000
L25000 37000
" />
<path d="M40500 19000
L40500 37000
" />
<path d="M25000 19000
L40500 19000
" />
<path d="M28450 32329
L28431 32348
L28375 32367
L28337 32367
L28281 32348
L28243 32310
L28225 32273
L28206 32198
L28206 32142
L28225 32067
L28243 32029
L28281 31992
L28337 31973
L28375 31973
L28431 31992
L28450 32010
" />
<path d="M28825 32367
L28600 32367
" />
<path d="M28712 32367
L28712 31973
L28675 32029
L28637 32067
L28600 32085
" />
<path d="M40329 33049
L40348 33068
L40367 33124
L40367 33162
L40348 33218
L40310 33256
L40273 33274
L40198 33293
L40142 33293
L40067 33274
L40029 33256
L39992 33218
L39973 33162
L39973 33124
L39992 33068
L40010 33049
" />
<path d="M40010 32899
L39992 32881
L39973 32843
L39973 32749
L39992 32712
L40010 32693
L40048 32674
L40085 32674
L40142 32693
L40367 32918
L40367 32674
" />
<path d="M36950 29829
L36931 29848
L36875 29867
L36837 29867
L36781 29848
L36743 29810
L36725 29773
L36706 29698
L36706 29642
L36725 29567
L36743 29529
L36781 29492
L36837 29473
L36875 29473
L36931 29492
L36950 29510
" />
<path d="M37081 29473
L37325 29473
L37193 29623
L37250 29623
L37287 29642
L37306 29660
L37325 29698
L37325 29792
L37306 29829
L37287 29848
L37250 29867
L37137 29867
L37100 29848
L37081 29829
" />
<path d="M29371 35479
L28977 35479
L28977 35329
L28996 35292
L29014 35273
L29052 35254
L29108 35254
L29146 35273
L29164 35292
L29183 35329
L29183 35479
" />
<path d="M29371 34879
L29371 35104
" />
<path d="M29371 34992
L28977 34992
L29033 35029
L29071 35067
L29089 35104
" />
<path d="M35985 23101
L35591 23101
L35591 22951
L35610 22914
L35628 22895
L35666 22876
L35722 22876
L35760 22895
L35778 22914
L35797 22951
L35797 23101
" />
<path d="M35628 22726
L35610 22707
L35591 22670
L35591 22576
L35610 22539
L35628 22520
L35666 22501
L35703 22501
L35760 22520
L35985 22745
L35985 22501
" />
<path d="M29371 23979
L28977 23979
L28977 23829
L28996 23792
L29014 23773
L29052 23754
L29108 23754
L29146 23773
L29164 23792
L29183 23829
L29183 23979
" />
<path d="M28977 23623
L28977 23379
L29127 23510
L29127 23454
L29146 23417
L29164 23398
L29202 23379
L29296 23379
L29333 23398
L29352 23417
L29371 23454
L29371 23567
L29352 23604
L29333 23623
" />
<path d="M35617 28037
L35598 28074
L35560 28112
L35504 28168
L35485 28206
L35485 28243
" />
<path d="M35579 28224
L35560 28262
L35523 28299
L35448 28318
L35317 28318
L35242 28299
L35204 28262
L35185 28224
L35185 28149
L35204 28112
L35242 28074
L35317 28056
L35448 28056
L35523 28074
L35560 28112
L35579 28149
L35579 28224
" />
<path d="M35579 27681
L35579 27906
" />
<path d="M35579 27793
L35185 27793
L35242 27831
L35279 27868
L35298 27906
" />
<path d="M32804 23065
L32616 23196
" />
<path d="M32804 23290
L32410 23290
L32410 23140
L32429 23103
L32447 23084
L32485 23065
L32541 23065
L32579 23084
L32597 23103
L32616 23140
L32616 23290
" />
<path d="M32804 22690
L32804 22915
" />
<path d="M32804 22803
L32410 22803
L32466 22840
L32504 22878
L32522 22915
" />
<path d="M32804 33065
L32616 33196
" />
<path d="M32804 33290
L32410 33290
L32410 33140
L32429 33103
L32447 33084
L32485 33065
L32541 33065
L32579 33084
L32597 33103
L32616 33140
L32616 33290
" />
<path d="M32447 32915
L32429 32896
L32410 32859
L32410 32765
L32429 32728
L32447 32709
L32485 32690
L32522 32690
L32579 32709
L32804 32934
L32804 32690
" />
<path d="M35304 23065
L35116 23196
" />
<path d="M35304 23290
L34910 23290
L34910 23140
L34929 23103
L34947 23084
L34985 23065
L35041 23065
L35079 23084
L35097 23103
L35116 23140
L35116 23290
" />
<path d="M34910 22934
L34910 22690
L35060 22821
L35060 22765
L35079 22728
L35097 22709
L35135 22690
L35229 22690
L35266 22709
L35285 22728
L35304 22765
L35304 22878
L35285 22915
L35266 22934
" />
<path d="M35304 33065
L35116 33196
" />
<path d="M35304 33290
L34910 33290
L34910 33140
L34929 33103
L34947 33084
L34985 33065
L35041 33065
L35079 33084
L35097 33103
L35116 33140
L35116 33290
" />
<path d="M35041 32728
L35304 32728
" />
<path d="M34891 32821
L35172 32915
L35172 32671
" />
</g>
<g style="fill:#008484; fill-opacity:0.0; 
stroke:#008484; stroke-width:59.0551; stroke-opacity:1; 
stroke-linecap:round; stroke-linejoin:round;">
</g>
<g style="fill:#008484; fill-opacity:0.0; 
stroke:#008484; stroke-width:47.2441; stroke-opacity:1; 
stroke-linecap:round; stroke-linejoin:round;">
<path d="M26750.6 30387.2 A1807.09 1807.09 0.0 0 0 30281.2 30385.8 " />
<path d="M30281.2 29614.2 A1807.09 1807.09 0.0 0 0 26750.6 29612.8 " />
<path d="M26750.6 29612.8 A1807.09 1807.09 0.0 0 0 26750.3 30385.8 " />
<path d="M30366 30000
L29893 30000
" />
<path d="M30129 30255
L30129 29744
" />
<path d="M38387.2 34749.4 A1807.09 1807.09 0.0 0 0 38385.8 31218.8 " />
<path d="M37614.2 31218.8 A1807.09 1807.09 0.0 0 0 37612.8 34749.4 " />
<path d="M37612.8 34749.4 A1807.09 1807.09 0.0 0 0 38385.8 34749.7 " />
<path d="M38000 31133
L38000 31606
" />
<path d="M38255 31370
L37744 31370
" />
<path d="M35250.6 27887.2 A1807.09 1807.09 0.0 0 0 38781.2 27885.8 " />
<path d="M38781.2 27114.2 A1807.09 1807.09 0.0 0 0 35250.6 27112.8 " />
<path d="M35250.6 27112.8 A1807.09 1807.09 0.0 0 0 35250.3 27885.8 " />
<path d="M38866 27500
L38393 27500
" />
<path d="M38629 27755
L38629 27244
" />
</g>
<g style="fill:#008484; fill-opacity:0.0; 
stroke:#008484; stroke-width:59.0551; stroke-opacity:1; 
stroke-linecap:round; stroke-linejoin:round;">
<path d="M25885 35188
L25728 35188
" />
<path d="M26318 33811
L26318 36566
" />
<path d="M25885 33811
L25885 36566
" />
<path d="M28720 33811
L25728 33811
" />
<path d="M25728 36566
L28720 36566
" />
<path d="M28720 36566
L28720 33811
" />
<path d="M39114 22811
L39271 22811
" />
<path d="M38681 24188
L38681 21433
" />
<path d="M39114 24188
L39114 21433
" />
<path d="M36279 24188
L39271 24188
" />
<path d="M39271 21433
L36279 21433
" />
<path d="M36279 21433
L36279 24188
" />
<path d="M25885 23688
L25728 23688
" />
<path d="M26318 22311
L26318 25066
" />
<path d="M25885 22311
L25885 25066
" />
<path d="M28720 22311
L25728 22311
" />
<path d="M25728 25066
L28720 25066
" />
<path d="M28720 25066
L28720 22311
" />
</g>
<g style="fill:#008484; fill-opacity:0.0; 
stroke:#008484; stroke-width:47.2441; stroke-opacity:1; 
stroke-linecap:round; stroke-linejoin:round;">
<path d="M33271 27291
L33271 28708
" />
<path d="M35023.6 28000 A1023.62 1023.62 0.0 0 0 33276.2 27276.2 " />
<path d="M33276.2 28723.8 A1023.62 1023.62 0.0 0 0 35023.6 28000 " />
<path d="M32232 21027
L30767 21027
" />
<path d="M30767 21027
L30767 24972
" />
<path d="M30767 24972
L32232 24972
" />
<path d="M32232 24972
L32232 21027
" />
<path d="M31500 20543
L31500 21027
" />
<path d="M31500 25456
L31500 24972
" />
<path d="M32232 31027
L30767 31027
" />
<path d="M30767 31027
L30767 34972
" />
<path d="M30767 34972
L32232 34972
" />
<path d="M32232 34972
L32232 31027
" />
<path d="M31500 30543
L31500 31027
" />
<path d="M31500 35456
L31500 34972
" />
<path d="M34732 21027
L33267 21027
" />
<path d="M33267 21027
L33267 24972
" />
<path d="M33267 24972
L34732 24972
" />
<path d="M34732 24972
L34732 21027
" />
<path d="M34000 20543
L34000 21027
" />
<path d="M34000 25456
L34000 24972
" />
<path d="M34732 31027
L33267 31027
" />
<path d="M33267 31027
L33267 34972
" />
<path d="M33267 34972
L34732 34972
" />
<path d="M34732 34972
L34732 31027
" />
<path d="M34000 30543
L34000 31027
" />
<path d="M34000 35456
L34000 34972
" />
</g> 
</svg>
